<?xml version="1.0" encoding="UTF-8"?>
<svg id="Capa_1" data-name="Capa 1" xmlns="http://www.w3.org/2000/svg" viewBox="0 0 18.43 13.27">
  <defs>
    <style>
      .cls-1 {
        fill: #fff;
      }

      .cls-2 {
        fill: #848484;
      }

      .cls-3 {
        fill: #e0e0e0;
      }

      .cls-4 {
        fill: #030303;
      }

      .cls-5 {
        fill: #2c2c2c;
      }

      .cls-6 {
        fill: #f2f2f2;
      }

      .cls-7 {
        fill: #1d1d1b;
      }

      .cls-8 {
        fill: #010101;
      }
    </style>
  </defs>
  <g>
    <path class="cls-1" d="M18.43,13.05c-.05-.28-.18-.54-.28-.8-.1-.28-.19-.56-.24-.85-.08-.48-.1-.98-.3-1.43-.18-.41-.27-.84-.3-1.28,0-.11-.1-.26,.11-.31,.04,0,.02-.07,.01-.1-.01-.08-.03-.16-.05-.24-.02-.08-.02-.13,.08-.17,.13-.05,.18-.17,.22-.3,.06-.2-.01-.38-.03-.57-.02-.27,.04-.53,.03-.8-.04-1-.11-2-.18-3.01,0-.09-.03-.19-.11-.24-.22-.15-.32-.38-.38-.63-.09-.43-.23-.83-.4-1.23-.11-.26-.46-.5-.68-.47-.3,.04-.44,.27-.54,.53-.03,.08-.06,.15-.06,.23-.02,.32-.16,.62-.09,.95,.02,.11,.02,.29-.1,.37-.19,.13-.29,.32-.34,.53-.17,.76-.43,1.48-.75,2.19-.16,.36-.42,.62-.73,.84-.16,.11-.25,.26-.3,.44v.14c.07,0,.06-.09,.11-.11,.03,.05,0,.09-.01,.13,0,.04,.03,.09,.05,.05,.05-.08,.13-.05,.19-.06,.16-.03,.16-.19,.25-.27,.21-.2,.41-.41,.62-.61,.43-.44,.86-.9,.91-1.57h0c.03,.23,.08,.44-.06,.66-.52,.87-1.01,1.76-1.45,2.68-.06,.12-.03,.16,.07,.21,.15,.07,.29,.14,.45,.16,.18,.02,.36,.05,.55,.08,.08,.01,.15,.03,.17,.14,.11,.49,.26,.98,.25,1.5,0,.34,.04,.67,.1,1,.08,.38,.19,.74,.21,1.13,.01,.29-.04,.57-.07,.85-.02,.17,.1,.3,.26,.31,.19,.01,.33-.11,.31-.29-.04-.28-.01-.56-.01-.84,0-.1,0-.21-.09-.27-.08-.07-.09-.15-.08-.25,.01-.51,.09-1.02,.03-1.52-.06-.49,.06-.98-.01-1.46,0-.04-.01-.08,.04-.11,.13-.06,.53,.08,.57,.21,.15,.42,.34,.83,.46,1.25,.18,.61,.45,1.18,.73,1.74,.05,.11,.09,.22,.07,.34-.02,.19,.02,.37,.08,.55,.06,.15,.11,.3,.13,.46,.04,.28,.1,.33,.39,.34,.16,0,.21-.06,.19-.21h0Z"/>
    <path class="cls-1" d="M13,6.84s.02-.1,.03-.14v-.1c.03-.25,0-.49-.14-.75-.11-.2-.3-.39-.28-.68,0-.11,0-.2,.06-.29,.2-.28,.39-.56,.58-.84,.12-.18,.14-.35,.03-.56-.14-.25-.38-.43-.44-.73-.06-.32-.28-.51-.59-.59-.41-.11-.54-.46-.27-.8,.01,.03,.03,.06,.04,.09,.03-.04-.01-.11,.04-.15,.04,.03-.01,.1,.04,.11,.15-.29,.03-.58-.02-.86-.1-.5-.45-.67-.9-.45-.02,0-.05,.03-.07,.04-.27,.11-.31,.18-.3,.48,.01,.29,.16,.55,.16,.83,.06,.02,.04-.11,.09-.06,.06,.06,.14,.13,.15,.23,0,.08-.05,.13-.12,.17-.13,.07-.26,.13-.41,.16-.2,.04-.4,.12-.48,.34-.12,.34-.22,.67-.26,1.03-.03,.26-.05,.52-.13,.77-.09,.28-.07,.56,.01,.83,.06,.18,.11,.36,.19,.53,.18,.35,.22,.68-.05,1-.03,.03-.07,.08,0,.14,.21,.2,.33,.47,.57,.64,.09,.07,.11,.16,.13,.28,.12,.83-.06,1.64-.06,2.47,0,.04-.03,.09-.05,.13-.33,.71-.78,1.32-1.45,1.75-.03,.02-.06,.05-.09,.08-.2,.16-.21,.26-.05,.46,.04,.05,.09,.1,.15,.13,.15,.09,.26,.19,.1,.38,.2,0,.36,.07,.52,.1,.12,.02,.19,.08,.29,.12,.03,.02,.06,0,.09-.02,.28-.18,.65-.3,.52-.77v-.08c0-.08,.04-.11,.11-.12s.11,.02,.14,.08c.05,.09,.03,.2,.05,.3,0,.05,0,.11,.07,.12,.28,.06,.55,.1,.79-.13,.19-.18,.83-.19,1.02-.01,.15,.14,.31,.18,.49,.18,.08,0,.23,.06,.17-.14-.01-.05,.04-.07,.08-.08,.25-.07,.47-.26,.76-.15h0c.01-.1-.06-.18,0-.27,.07-.11,.05-.23,.02-.34-.13-.5-.25-1-.4-1.49-.21-.69-.33-1.42-.73-2.06-.04-.07-.07-.16-.06-.23,.03-.36-.08-.71-.09-1.07h-.05Zm-.78-3.74s-.04,.07-.09,.07h0s-.02-.07-.02-.11-.02-.09,.02-.12c.02-.02,.05,0,.07,.02,.03,.04,.04,.09,.02,.13h0Z"/>
    <path d="M13.03,6.7s-.02,.09-.03,.14h.03v-.14h0Z"/>
  </g>
  <path class="cls-1" d="M1.43,1.91c-.02-.16-.13-.3-.12-.47,0-.03-.02-.04-.05-.06-.14-.08-.15-.24-.12-.36,.03-.1,.02-.19,0-.28-.07-.19-.02-.37,.06-.54,.02-.04,.05-.08,.09-.09,.14-.02,.27-.09,.41-.1,.49-.04,.79,.33,.69,.81-.02,.12,.06,.22,.03,.34,0,.05,0,.11-.03,.14-.14,.11-.1,.27-.14,.41-.02,.22-.18,.35-.32,.49-.06,.06-.13,.06-.21,.02-.12-.07-.22-.15-.3-.26v-.04h.01Z"/>
  <path class="cls-1" d="M6.23,1.65c-.04-.09-.09-.18-.08-.28,0-.03,0-.05-.03-.08-.11-.12-.17-.26-.06-.42,.02-.03,0-.07,0-.11-.06-.26-.04-.46,.23-.62s.48-.2,.75-.04c.08,.05,.16,.11,.19,.2,.09,.27,.09,.56,.08,.84,0,.14-.12,.3-.18,.46-.02,.05-.04,.1-.02,.16,.04,.09-.02,.13-.07,.18-.2,.18-.56,.16-.75-.02-.09-.08-.01-.18-.05-.26h0Z"/>
  <path class="cls-2" d="M7.24,1.85c-.02,.16,.08,.28,.15,.39,.15,.22,.1,.4,.01,.62-.23,.53-.45,1.07-.67,1.6h0c-.03,.06-.04,.15-.1,.15-.07,0-.07-.09-.09-.14-.25-.63-.5-1.26-.75-1.89-.02-.06-.01-.1,.02-.15,.09-.14,.17-.29,.26-.43,.03-.05,.04-.11,.06-.17,.01-.02,.02-.03,.04-.05,.08-.05,.07,.03,.09,.07,.04,.12,0,.25,.04,.37,.1,.38,.17,.77,.22,1.17,0,.06,.02,.12,.01,.18,0,0-.01,.02,0,.02,0,0,0-.02,.01-.03,.11,0,.08,.09,.08,.15,.01,.17-.05,.35,0,.52h0c.08-.15,.03-.33,.08-.49,.08-.29,.11-.59,.18-.89,.03-.15,.06-.29,.12-.44,.07-.15,.04-.32,.07-.48,.01-.06,0-.13,.08-.15,.02,.02,.05,.04,.07,.06h.02Z"/>
  <path class="cls-3" d="M7.17,1.79s-.03,.06-.03,.09c-.05,.63-.29,1.23-.36,1.86h-.02s-.04-.1-.04-.15c0-.28-.02-.55,.02-.83,.03-.19-.03-.36-.07-.54-.02,.15-.06,.29-.06,.44v.69c0,.07,.01,.14-.04,.2,0,.06,0,.12-.01,.18h-.02c-.04-.26-.09-.51-.13-.78-.05-.37-.21-.72-.18-1.1,0-.03-.01-.06-.06-.06,.03-.04,.08-.08,.07-.14,.07,.25,.17,.34,.41,.36,.22,.02,.39-.07,.47-.26,.03,0,.05,0,.06,.03h0Z"/>
  <path class="cls-2" d="M2.45,1.98c.08,.07,.06,.2,.16,.27,.05,.04,.02,.11,0,.17-.14,.41-.29,.82-.43,1.23-.08,.23-.16,.46-.24,.69-.02,.01-.04,0-.05-.01-.04-.19,.02-.38,.05-.56,.03-.26,.06-.53,.1-.79,.04-.15,.05-.31,.07-.47,.03-.16,.03-.32,.05-.48,0-.08,.02-.15,.08-.2,.07,.05,.13,.1,.2,.15,0,0,0,0,.01,0Z"/>
  <path class="cls-2" d="M1.93,4.34h.03c0,.07-.03,.13-.08,.03-.08-.15-.14-.32-.2-.47-.19-.46-.39-.91-.58-1.37-.03-.08-.05-.14,.03-.2,.07-.06-.05-.07-.04-.12,.15-.06,.25-.19,.36-.29v.04c.1,.15,.08,.33,.13,.49,.04,.21,.05,.42,.12,.62,.04,.29,.09,.59,.17,.87,.04,.13,.02,.28,.08,.41h-.02Z"/>
  <path class="cls-3" d="M1.53,2.44c-.06-.16-.06-.33-.09-.49,.1,.08,.19,.17,.3,.24,.05,.03,.1,.05,.14,0,.14-.14,.29-.28,.37-.48v.11c-.03,.23-.06,.46-.1,.69-.06-.03-.12-.06-.17-.09-.1-.1-.19-.12-.28,0-.06,.03-.12,.06-.18,0h0v.02h0Z"/>
  <path class="cls-6" d="M6.56,7.09v-.21h.04c.02,.08,.02,.16,0,.24-.02-.01-.04-.02-.05-.03,0,0,.01,0,.01,0Z"/>
  <path class="cls-1" d="M8.51,4.58c-.03-.23-.03-.48-.03-.73,0-.46-.09-.91-.17-1.36-.03-.17-.11-.3-.29-.35-.26-.09-.52-.19-.77-.29-.09,.02-.04,.08-.02,.12,.05,.11,.09,.23,.15,.32,.11,.16,.1,.32,.02,.49-.2,.44-.38,.89-.57,1.34-.06,.14-.1,.28-.18,.42-.06-.03-.07-.08-.08-.12-.17-.46-.34-.93-.55-1.38-.17-.36-.2-.67,.07-.98,.05-.05,.09-.13,.04-.21-.24,.15-.49,.29-.77,.38-.2,.07-.33,.18-.31,.42,0,.03,0,.06-.02,.09-.08,.18-.11,.36-.14,.55-.05,.27-.05,.54-.13,.81-.14,.49-.1,.98,.03,1.46,.05,.2,.11,.41,.14,.62,.01,.09,.04,.17,.14,.19,.11,.03,.15,.1,.14,.22-.01,.15-.02,.3-.02,.46,0,.68-.07,1.36-.06,2.04,0,.53-.09,1.06-.09,1.6,0,.49-.05,.99-.11,1.48-.03,.24-.13,.34-.3,.43-.12,.07-.23,.14-.35,.21-.04,.03-.07,.07-.06,.12,0,.06,.06,.08,.1,.08,.28,.04,.56,.06,.81-.14,.08-.06,.18-.13,.31-.05,.11,.06,.25,0,.26-.09,.03-.21,.06-.41,.12-.61,.11-.34,.08-.7,.1-1.05,.04-.56,.02-1.13,.16-1.69,.19-.75,.35-1.51,.47-2.28,.02-.02,.02-.04,.03-.07,0,.02,0,.05,.01,.07,0,0,0,.02,.01,.03v.33c.02,1.69-.08,3.38,.12,5.07,.01,.1,.14,.19,.22,.13,.12-.1,.14,.03,.18,.07,.03,.03,.03,.09,.08,.11,.18,.08,.35,.14,.55,.1,.17-.03,.19-.08,.07-.21-.15-.16-.31-.32-.43-.51-.02-.03-.05-.05-.04-.11,.04-.49,.05-.99,.09-1.48,.05-.62-.05-1.24,.07-1.86,.04-.21,.06-.42,.1-.63,.08-.47,.14-.95,.26-1.41,.01-.05,0-.12,.08-.13,.23-.03,.29-.21,.31-.38,.06-.54,.32-1.05,.24-1.63h.01Zm-3.01,.51c-.22-.42-.04-.81,.05-1.21,.06,.41,.03,.81-.05,1.21Zm2.27-.01c-.05-.4-.09-.78-.01-1.17,.09,.39,.2,.77,.01,1.17Z"/>
  <path class="cls-7" d="M7.65,3.45h-.37c.07-.05,.12-.08,.16-.1,.11-.07,.18-.03,.21,.1Z"/>
  <path class="cls-1" d="M3.43,6.33c.18-.01,.15-.14,.18-.23,.07-.2,.13-.42,.19-.62,.12-.39,.22-.8,.16-1.21-.1-.68-.29-1.34-.5-1.99-.03-.09-.08-.14-.18-.16-.28-.05-.55-.1-.83-.15h-.03c-.03,.05,.02,.06,.03,.1,.05,.14,.17,.24,.1,.42-.23,.59-.42,1.2-.63,1.8h0c-.08-.05-.08-.15-.11-.23-.22-.5-.43-1.01-.65-1.52-.03-.07-.06-.13,0-.2,.08-.09,0-.12-.07-.15-.16,.06-.31,.12-.47,.18-.1,.04-.16,.11-.18,.21-.05,.18-.1,.37-.14,.55-.15,.54-.29,1.05-.3,1.59,0,.65,.27,1.24,.47,1.84,0,.02,.03,.06,.04,.06,.21,.02,.25,.18,.27,.35,.02,.21,.05,.42,.08,.63,.06,.57,.2,1.13,.18,1.7-.02,.8,.24,1.55,.36,2.33,0,.08,.02,.14-.03,.21-.09,.14-.19,.28-.26,.43-.05,.11-.08,.24,.02,.34s.23,.06,.35,.02c.29-.09,.31-.43,.52-.58v-.08c.04-.2,0-.41,0-.62,0-.32-.14-.6-.11-.93,.04-.4,0-.81-.1-1.2v-.06c.04-.52,.08-1.04,.13-1.56,.02-.18,.02-.37,.09-.55,.06,.07,.08,.15,.1,.23,.11,.46,.25,.9,.38,1.35,.09,.34,.17,.69,.13,1.06-.04,.38-.05,.76,.04,1.14,.08,.38,.08,.75,.04,1.13-.02,.22-.08,.44,.19,.54,.03,.01,.03,.04,.04,.07,.09,.33,.24,.45,.57,.45,.18,0,.24-.06,.22-.24,0-.08-.04-.15-.08-.21-.07-.12-.14-.23-.21-.35-.04-.08-.09-.17-.06-.26,.08-.24,.07-.49,.06-.74-.02-.55,.02-1.1-.03-1.65-.09-.98-.08-1.96-.12-2.94,0-.13,.08-.28,.15-.28l-.02-.02s.02,0,.02,0Zm-2.62-.76H.81c-.16-.41-.21-.82-.08-1.25,.05-.15,.1-.29,.1-.46,.19,.57,.16,1.14-.02,1.7h0Zm2.42-.51c-.03-.36-.06-.71-.09-1.09,.18,.26,.22,.9,.09,1.09Z"/>
  <path class="cls-5" d="M2.85,3.26c.06,0,.11,0,.12,.05,0,.07-.04,.08-.09,.08-.12,0-.23,.03-.35,.04-.04,0-.09,.03-.1-.03s.02-.11,.09-.11c.12,0,.24,0,.34-.04h0Z"/>
  <path class="cls-4" d="M6.56,3.55c0-.33,0-.67-.01-1,0-.11,.09-.21,.01-.33-.02-.03,.05-.1,.1-.1,.04,0,.09,.05,.09,.1,0,.28,.03,.56,0,.83-.02,.23-.01,.46-.01,.69,0,.19-.02,.38-.06,.56,0,.03,0,.05-.05,.07-.03-.16-.09-.31-.05-.48,.03-.11,.03-.24-.02-.35h0Z"/>
  <path class="cls-8" d="M1.7,2.44c0-.09,.06-.14,.11-.15,.08,0,.15,.04,.18,.12-.02,.19,.11,.36,.09,.56,0,.41-.09,.81-.15,1.21v.16c-.13-.17-.1-.38-.16-.56-.06-.17-.07-.36-.12-.53-.02-.07,.04-.12,0-.19-.05-.08-.03-.17,0-.25,.04-.12,.05-.24,.04-.36h.01Z"/>
  <path class="cls-3" d="M2.09,2.96c-.03-.08-.05-.17-.09-.24-.06-.11-.06-.21,0-.32,.06,.02,.15,0,.16,.11,0,.15,0,.31-.07,.45h0Z"/>
  <path class="cls-3" d="M1.7,2.44c.07,.08,.07,.17,.03,.27-.05,.11-.08,.23-.07,.35-.07,0-.05-.07-.06-.12-.02-.16-.05-.33-.07-.49,.06,0,.11-.04,.17,0h0Z"/>
</svg>