<?xml version="1.0" encoding="UTF-8"?>
<svg id="Capa_1" data-name="Capa 1" xmlns="http://www.w3.org/2000/svg" viewBox="0 0 40.97 12.84">
  <defs>
    <style>
      .cls-1 {
        fill: #fff;
      }
    </style>
  </defs>
  <path class="cls-1" d="M2.16,8.26c-.17,.1-.37,.16-.58,.18-.21,.02-.43,0-.63-.07-.41-.14-.78-.48-.91-.94-.06-.23-.06-.48,.02-.71,.04-.11,.1-.22,.17-.31,.07-.09,.15-.17,.24-.24,.17-.15,.4-.24,.63-.26,.23-.02,.44,.02,.63,.09,.19,.06,.37,.15,.54,.24,.17,.09,.33,.19,.49,.3,.31,.21,.62,.43,.92,.64,.31,.21,.62,.41,.95,.56,.17,.08,.33,.14,.51,.19,.17,.04,.35,.06,.51,.04,.09-.01,.16,.05,.17,.14,.01,.09-.05,.16-.14,.17,0,0-.02,0-.02,0h0c-.21,0-.41-.05-.59-.11s-.36-.14-.53-.23c-.34-.18-.66-.38-.97-.58-.32-.2-.63-.4-.95-.59-.32-.18-.65-.35-.98-.43-.17-.04-.33-.05-.48-.02-.15,.03-.27,.1-.37,.21-.22,.22-.29,.49-.22,.75,.07,.27,.28,.51,.55,.66,.28,.15,.62,.19,.98,.17h0s.08,.03,.09,.07c0,.03-.01,.06-.04,.08ZM.62,3.94s0-.09,0-.14c0-.04,.01-.09,.02-.13,.01-.04,.02-.08,.05-.12,.08-.17,.25-.31,.41-.35,.16-.05,.32-.04,.46-.03,.28,.04,.53,.15,.75,.3,.11,.08,.21,.16,.3,.26,0,0,0,.01,.01,.02,0-.1,.02-.19,.04-.29,.06-.22,.15-.44,.34-.61,.05-.04,.11-.08,.17-.11,.06-.03,.14-.04,.21-.04,.07,0,.14,0,.2,.03,.03,0,.06,.02,.09,.03,.03,.02,.07,.04,.1,.06,.07,.05,.11,.13,.13,.21,0,.04,.02,.07,.02,.11v.05s0,.05,0,.05c0,.13-.03,.24-.06,.35-.06,.21-.13,.41-.2,.61-.07,.2-.13,.4-.18,.59-.05,.2-.09,.4-.1,.6-.01,.2,.02,.4,.09,.58h0s0,.02,0,.02c0,0,0,0,0,0,0,.03-.02,.07-.05,.08-.02,0-.05,0-.07,0,0,0,0,0,0,0,0,0,0,0-.01,0,0,0,0,0,0,0h0c-.14-.18-.32-.32-.52-.44-.2-.12-.41-.23-.62-.34-.21-.11-.43-.22-.65-.34-.11-.06-.22-.13-.32-.2-.11-.07-.21-.15-.31-.25-.1-.1-.2-.22-.26-.39-.02-.04-.02-.09-.03-.13Zm.46-.1s0,.03,0,.04c0,.02,0,.03,.01,.05,.02,.06,.07,.14,.14,.21,.14,.15,.34,.28,.53,.41,.2,.13,.41,.25,.61,.39,.21,.13,.41,.27,.61,.43,.07,.06,.14,.12,.2,.19,0-.06-.01-.12-.02-.17-.01-.22,.01-.45,.06-.66,.08-.43,.24-.83,.35-1.22,.02-.1,.04-.19,.05-.28,0-.04,0-.08,0-.11-.01-.03-.02-.05-.03-.06,0,0-.02-.01-.03-.02-.02,0-.04-.02-.06-.02-.04-.01-.07-.02-.11-.02-.04,0-.07,0-.1,.02-.03,.01-.07,.03-.1,.06-.06,.05-.12,.12-.17,.2-.05,.08-.09,.17-.12,.26-.03,.09-.06,.19-.07,.29-.01,.1-.02,.2,0,.28h0s-.02,.09-.06,.1c-.03,0-.06,0-.08-.03h0s0,0,0,0c-.14-.16-.34-.27-.54-.36-.2-.09-.42-.15-.62-.17-.1,0-.2,0-.26,.02-.07,.02-.1,.05-.13,.1,0,.01-.01,.03-.02,.05,0,.02,0,.03,0,.05Zm3.81,4.86c-.15,.23-.32,.44-.51,.64-.19,.2-.39,.38-.62,.53-.11,.07-.23,.14-.36,.2-.06,.03-.12,.06-.2,.08-.07,.02-.15,.04-.23,.04-.16,0-.32-.04-.46-.12-.14-.08-.25-.21-.33-.35-.07-.14-.12-.31-.1-.49,.02-.18,.14-.37,.29-.46,.04-.03,.08-.04,.12-.06,.04-.01,.08-.03,.12-.04,.04,0,.08-.02,.12-.02,.04,0,.08,0,.12,0,.08,0,.14,0,.22,.01,.07,0,.14,.01,.21,.02,.27,.04,.53,.1,.77,.1,.12,0,.24-.02,.36-.05,.12-.03,.23-.08,.35-.13,.02-.02,.06-.03,.09,0,.04,.02,.05,.07,.03,.11,0,0,0,0,0,0Zm-.32,.22s-.04,.02-.06,.03c-.13,.06-.27,.1-.42,.12-.15,.02-.29,.02-.43,0l-.4-.03c-.06,0-.13,0-.19-.01-.06,0-.13,0-.18,0-.11,0-.21,.02-.28,.07-.04,.02-.06,.05-.08,.08-.02,.03-.03,.07-.04,.11-.01,.08,0,.19,.04,.28,.07,.19,.24,.37,.46,.39,.11,.02,.22-.01,.35-.06,.12-.04,.24-.1,.35-.16,.22-.13,.43-.3,.61-.49,.1-.1,.19-.22,.28-.33Zm-.63-2.83c.1-.18,.25-.29,.38-.37,.13-.09,.25-.16,.32-.26h0s0-.01,0-.02c.02-.04,.06-.06,.1-.04,.04,.01,.05,.05,.05,.09h0c-.02,.12,.03,.27,.07,.42,.04,.15,.1,.32,.07,.51,0,.02,0,.05-.01,.07,0,.02-.02,.05-.03,.07-.02,.04-.04,.08-.07,.12-.06,.08-.14,.14-.22,.18-.08,.04-.16,.06-.22,.08-.05,.02-.08,.04-.1,.08,0,.01-.01,.03-.02,.04,0,0,0,0,0,0-.02,.03-.06,.05-.1,.03-.03-.02-.05-.05-.04-.09,0,0,0,0,0-.01,0-.06,0-.1-.04-.15-.03-.05-.09-.11-.13-.19-.05-.08-.07-.19-.07-.29,0-.05,0-.1,.02-.15,.01-.05,.03-.1,.05-.15Zm.16-.97s0-.07,.03-.09h0c.11-.09,.15-.21,.17-.36,.02-.15,0-.31,0-.47,0-.16-.02-.33,0-.5,0-.09,.02-.17,.05-.26,.03-.08,.08-.17,.15-.23,.02-.01,.04-.01,.06,0,.01,.01,.01,.03,0,.05h0c-.08,.13-.08,.29-.07,.44,.01,.16,.03,.32,.05,.48,.01,.17,.02,.34,0,.52-.02,.09-.05,.18-.1,.27-.05,.08-.13,.16-.22,.19-.04,.02-.09,0-.1-.05Zm.1,1.43c.02,.06,.06,.13,.09,.22,0,0,0,0,0,0,.08-.05,.15-.07,.21-.1,.06-.03,.1-.07,.14-.12,.02-.02,.03-.05,.04-.08,0-.01,0-.03,.02-.04v-.04c.03-.12,0-.27-.04-.42-.01-.05-.02-.1-.03-.16-.05,.05-.09,.09-.14,.14-.12,.1-.22,.2-.27,.3-.01,.02-.02,.05-.03,.07,0,.03-.01,.06-.01,.08,0,.06,0,.1,.02,.16Zm.25-4.42c-.03-.17,.04-.27,.09-.35,.04-.05,.05-.08,.05-.11,0-.01,0-.03,0-.04,0,0,0,0,0,0,0-.04,.01-.07,.05-.08,.04-.01,.09,0,.1,.05,0,0,0,0,0,.01h0s.03,.03,.06,.05c.03,.01,.09,.02,.15,.05,.06,.02,.12,.07,.16,.13,.02,.03,.04,.06,.05,.09,.01,.03,.02,.07,.03,.11,.01,.14-.04,.26-.07,.35-.04,.1-.08,.18-.08,.24h0s0,.02,0,.02c0,0,0,0,0,0,0,.04-.03,.07-.07,.07-.03,0-.06-.02-.08-.05,0,0,0-.01,0-.02-.02-.06-.09-.12-.17-.18-.11-.08-.23-.18-.26-.34Zm.15-.03c.02,.1,.11,.17,.21,.24,.03,.02,.05,.04,.08,.06,0-.04,.02-.07,.03-.1,.03-.1,.05-.19,.05-.25,0-.02,0-.03,0-.04,0-.02-.01-.03-.02-.04-.02-.03-.04-.05-.07-.07-.03-.02-.08-.04-.14-.07,0,0,0,0,0,0-.01,.02-.02,.04-.04,.06-.05,.07-.09,.13-.07,.23Zm.82,8.6c0,.27-.18,.49-.39,.49s-.39-.22-.39-.49,.17-.49,.39-.49,.39,.22,.39,.49Zm-.16,0c0-.18-.11-.33-.23-.33s-.23,.15-.23,.33,.11,.33,.23,.33,.23-.15,.23-.33Zm5.91-.72c0,.39-.13,.78-.34,1.1-.2,.32-.47,.58-.77,.77-.3,.2-.62,.34-.95,.43-.33,.09-.68,.13-1.02,.11-.35-.02-.69-.09-1.02-.23-.32-.14-.62-.34-.86-.6-.24-.26-.42-.56-.53-.88-.06-.16-.11-.32-.14-.48-.03-.16-.06-.32-.06-.48-.02-.32,0-.64,.04-.95,.02-.11,.12-.18,.22-.17,.1,.01,.16,.09,.17,.19h0c.02,.59,.11,1.16,.35,1.65,.06,.12,.13,.23,.2,.34,.08,.11,.16,.2,.25,.29,.19,.17,.4,.3,.64,.39,.47,.17,1.02,.16,1.52,0,.49-.16,.94-.47,1.16-.87,.11-.2,.17-.41,.16-.62,0-.25-.05-.48-.14-.68-.09-.2-.23-.37-.42-.52-.19-.15-.42-.29-.67-.41-.5-.25-1.08-.45-1.65-.75-.29-.15-.58-.31-.86-.52-.28-.21-.54-.46-.75-.76-.21-.3-.37-.63-.47-.97-.05-.17-.09-.34-.11-.52-.02-.17-.04-.33-.05-.49-.05-.66,0-1.35,.24-2,.23-.66,.65-1.27,1.23-1.7C7.11,.2,7.84-.04,8.57,0c.37,.02,.74,.12,1.07,.29,.34,.18,.64,.46,.84,.78,.2,.32,.32,.67,.39,1.01,.07,.34,.08,.68,.06,1.01-.04,.66-.19,1.3-.43,1.9-.12,.3-.27,.6-.45,.88-.18,.28-.4,.55-.69,.78-.17,.13-.42,.1-.55-.07-.13-.17-.1-.4,.06-.54h0c.18-.16,.34-.37,.48-.6,.14-.23,.25-.49,.35-.75,.19-.52,.3-1.08,.31-1.63,0-.27-.02-.54-.07-.79-.05-.25-.15-.48-.27-.67-.13-.19-.29-.33-.48-.42-.2-.1-.43-.16-.67-.17-.47-.02-.96,.15-1.35,.45-.39,.3-.68,.73-.84,1.21-.16,.49-.21,1.03-.17,1.57,0,.13,.03,.28,.05,.41,.02,.13,.05,.25,.08,.37,.07,.24,.18,.45,.31,.65,.28,.39,.71,.7,1.21,.95,.5,.26,1.06,.47,1.64,.77,.29,.15,.58,.33,.86,.57,.27,.24,.52,.55,.67,.91,.07,.18,.12,.36,.15,.55,.03,.18,.04,.36,.04,.54ZM5.08,.89c0-.11-.02-.23,0-.36,.02-.13,.11-.29,.25-.35,.07-.03,.13-.04,.17-.04,.04-.01,.05,0,.08-.04h0s0,0,0,0c.02-.04,.07-.05,.11-.03,.03,.02,.05,.06,.04,.09,0,0,0,0,0,0,0,.01,0,.03-.01,.05,0,.03,.01,.06,.04,.11,.04,.08,.11,.2,.05,.36-.05,.15-.2,.26-.35,.36-.1,.07-.21,.14-.24,.21,0,0,0,.01,0,.02-.02,.04-.07,.05-.11,.03-.03-.02-.05-.05-.04-.09h0c.02-.08,0-.2,0-.31Zm.2,.08s.06-.04,.09-.07c.12-.09,.26-.18,.29-.28,.03-.1,0-.16-.04-.24,0-.02-.02-.04-.03-.06,0,0-.01,0-.02,0-.07,.03-.11,.04-.15,.06-.06,.03-.1,.09-.12,.18-.02,.09-.02,.2-.02,.31,0,.03,0,.05,0,.08Zm.65,10.89c0,.18-.12,.32-.27,.32s-.27-.14-.27-.32,.12-.32,.27-.32,.27,.14,.27,.32Zm-.16,0c0-.09-.05-.17-.11-.17s-.11,.08-.11,.17,.05,.17,.11,.17,.11-.08,.11-.17Z"/>
  <path class="cls-1" d="M15.21,8.54c-.03,.37-.08,.74-.15,1.11-.08,.37-.18,.74-.37,1.11-.1,.18-.21,.36-.38,.53-.09,.08-.18,.16-.3,.22-.11,.06-.24,.11-.38,.13-.03,0-.07,.01-.1,.01-.03,0-.07,0-.1,0-.03,0-.07,0-.1,0-.04,0-.07,0-.11-.01-.15-.02-.29-.08-.41-.16-.12-.08-.22-.17-.31-.27s-.15-.2-.21-.3c-.23-.4-.32-.8-.39-1.19-.06-.39-.08-.78-.08-1.16,0-.38,.04-.76,.1-1.14,.03-.19,.06-.38,.11-.56,.02-.09,.05-.19,.08-.28,.03-.1,.06-.19,.11-.29,.09-.2,.32-.29,.52-.2,.16,.07,.25,.24,.23,.4v.03c-.02,.14-.03,.32-.04,.49,0,.17-.02,.34-.02,.52,0,.35-.01,.7,0,1.04,0,.34,.02,.69,.06,1.02,.03,.33,.09,.65,.18,.9,.05,.12,.1,.23,.16,.28,.03,.03,.05,.05,.08,.06,0,0,.02,0,.03,.01,0,0,.02,0,.03,0,.01,0,.02,0,.04,0,.01,0,.02,0,.04,0,.09,0,.19-.03,.29-.1,.1-.07,.2-.19,.29-.32,.18-.26,.32-.58,.43-.91,.11-.33,.2-.68,.27-1.03h0c.02-.11,.13-.17,.23-.15,.1,.02,.16,.11,.16,.21Zm-2.98-3.47c0-.28,.21-.5,.48-.5s.48,.22,.48,.5-.21,.5-.48,.5-.48-.22-.48-.5Z"/>
  <path class="cls-1" d="M18.49,8.52c-.04,.2-.09,.39-.14,.58-.05,.19-.11,.38-.18,.57-.13,.38-.29,.76-.52,1.12-.12,.18-.25,.36-.44,.53-.09,.08-.2,.16-.34,.22-.13,.06-.3,.1-.46,.09-.17,0-.33-.06-.46-.13-.13-.07-.24-.16-.33-.26-.18-.19-.3-.39-.41-.59-.2-.4-.32-.81-.41-1.22-.09-.41-.14-.82-.17-1.22-.05-.82-.01-1.64,.13-2.45,.14-.81,.38-1.61,.8-2.36,.21-.37,.48-.73,.81-1.04,.04-.04,.09-.07,.13-.11l.07-.05s.05-.04,.08-.06c.12-.08,.25-.15,.43-.19,.09-.02,.18-.03,.29-.02,.1,0,.21,.04,.3,.09,.19,.09,.31,.25,.39,.38,.08,.14,.12,.28,.14,.41,.02,.13,.03,.25,.03,.38,0,.24-.05,.46-.11,.68-.06,.21-.14,.41-.23,.61-.09,.19-.19,.38-.31,.55-.23,.35-.5,.67-.83,.94-.17,.13-.34,.26-.54,.35-.1,.05-.2,.09-.3,.12-.05,.01-.09,.03-.14,.04-.06,.56-.08,1.12-.07,1.69,.01,.37,.04,.74,.09,1.09,.05,.36,.13,.71,.25,1.02,.06,.15,.14,.29,.21,.39,.04,.05,.08,.09,.11,.11,.03,.02,.06,.04,.09,.04,.03,0,.06,0,.11,0,.04-.01,.1-.04,.16-.08,.11-.08,.23-.21,.34-.34,.11-.14,.21-.29,.3-.45,.1-.16,.18-.32,.27-.49,.17-.34,.33-.69,.47-1.04h0c.04-.1,.15-.15,.26-.11,.09,.04,.14,.13,.12,.22Zm-2.65-2.54s.09-.05,.13-.08c.14-.1,.27-.22,.39-.35,.24-.26,.44-.57,.6-.89,.17-.32,.31-.65,.38-.98,.04-.16,.05-.33,.05-.48,0-.15-.04-.29-.08-.34,0,0,0,0,0,0t0,0s-.05,.03-.1,.06c-.01,0-.02,.02-.03,.03l-.04,.04s-.06,.06-.09,.08c-.23,.23-.41,.52-.57,.83-.31,.63-.5,1.34-.62,2.06,0,0,0,.01,0,.02Zm1.44-3.14s0,0,.01,0c-.01-.02-.02-.02-.01,0Z"/>
  <path class="cls-1" d="M24.25,8.55c-.17,.39-.42,.75-.74,1.04-.32,.29-.72,.53-1.19,.6-.23,.03-.48,.02-.72-.06-.05-.02-.1-.03-.14-.05-.05,.1-.1,.21-.15,.31-.1,.19-.22,.38-.38,.56-.08,.09-.17,.18-.28,.26-.11,.08-.24,.15-.4,.2-.08,.02-.16,.03-.25,.04-.04,0-.07,0-.11,0-.03,0-.07,0-.1,0-.14-.02-.28-.05-.41-.1-.26-.11-.48-.28-.65-.46-.17-.19-.31-.39-.41-.6-.21-.42-.33-.86-.39-1.3-.06-.44-.05-.88,0-1.3,.03-.21,.07-.43,.13-.63,.06-.21,.13-.41,.21-.6,.09-.2,.33-.29,.52-.2,.16,.07,.25,.24,.23,.4h0c-.08,.75-.11,1.49-.01,2.19,.05,.35,.13,.69,.25,.99,.12,.3,.3,.56,.5,.68,.05,.03,.1,.06,.16,.07,.01,0,.03,0,.04,.01h.04s.03,.01,.05,.01c.08,0,.2-.06,.32-.17,.12-.1,.23-.24,.34-.39,.08-.11,.15-.22,.21-.34-.15-.16-.27-.35-.35-.54-.1-.21-.16-.42-.21-.63-.09-.42-.11-.85-.08-1.28,.02-.21,.05-.42,.11-.64,.05-.21,.12-.42,.25-.63,.06-.1,.14-.21,.27-.31,.06-.05,.14-.09,.23-.11,.02,0,.05-.01,.07-.01h.04s.03,0,.03,0c.04,0,.08,0,.12,0,.08,0,.16,.03,.23,.07,.07,.04,.14,.09,.19,.14,.11,.11,.17,.23,.21,.35,.09,.23,.11,.45,.12,.67,0,.22,0,.43-.01,.63-.04,.42-.11,.82-.21,1.22-.07,.3-.16,.59-.26,.88,.03,.02,.07,.03,.11,.05,.14,.05,.3,.07,.46,.05,.32-.03,.65-.19,.93-.41,.28-.22,.53-.51,.72-.83h0c.06-.09,.18-.12,.27-.07,.09,.05,.12,.16,.08,.25Zm-2.61-1.75c-.01-.18-.04-.36-.1-.5-.03-.07-.07-.12-.1-.16-.04-.03-.06-.04-.1-.04-.01,0-.02,0-.03,0h0s0,0,0,0c0,0,0,0,0,0,0,0-.02,0-.03,.02-.03,.03-.08,.08-.11,.15-.07,.13-.13,.31-.17,.48-.04,.18-.06,.36-.07,.54-.02,.37,0,.74,.08,1.1,.05,.24,.13,.46,.24,.66,.07-.18,.13-.37,.19-.56,.1-.37,.18-.75,.21-1.13,.02-.19,.02-.38,.01-.56Z"/>
  <path class="cls-1" d="M29.8,8.54c-.1,.56-.24,1.12-.48,1.67-.12,.27-.26,.54-.46,.79-.1,.12-.22,.24-.37,.35-.15,.1-.34,.18-.55,.2-.1,0-.21,0-.31-.02-.1-.02-.2-.05-.29-.1-.19-.1-.34-.25-.45-.41-.11-.16-.17-.32-.23-.48-.05-.16-.09-.32-.11-.47,0,0,0,0,0,0-.02,.07-.05,.15-.08,.22-.08,.23-.18,.45-.32,.67-.07,.11-.15,.22-.25,.33-.1,.11-.22,.22-.38,.3-.16,.08-.36,.14-.56,.14-.05,0-.1,0-.15-.01-.06-.01-.12-.03-.18-.05-.11-.04-.21-.11-.29-.17-.16-.13-.25-.27-.32-.41-.07-.13-.12-.26-.17-.39-.08-.26-.13-.51-.16-.76-.03-.25-.04-.49-.03-.74,0-.25,.03-.49,.07-.74,.04-.25,.1-.49,.18-.73,.08-.24,.2-.49,.35-.72,.16-.23,.37-.46,.66-.62,.14-.08,.31-.14,.46-.16,.16-.03,.34-.03,.52,0,.18,.04,.36,.13,.5,.25,.14,.12,.24,.27,.31,.43,.06,.16,.09,.33,.08,.5-.01,.17-.07,.34-.18,.49-.1,.13-.29,.15-.43,.05-.08-.06-.12-.16-.12-.26v-.12s0-.1,0-.15c-.02-.05-.04-.11-.08-.15-.04-.04-.07-.07-.11-.08s-.07-.02-.11-.02c-.08,0-.21,.04-.3,.11-.1,.07-.2,.17-.28,.32-.17,.28-.29,.66-.35,1.05-.07,.39-.09,.8-.06,1.19,.01,.2,.04,.39,.09,.56,.02,.08,.05,.16,.08,.23,.03,.06,.06,.11,.08,.12,0,0,0,0,0,0,0,0-.01,0-.02,0,0,0,.01,0,.02,0,.02,0,.05,0,.09,0,.09-.03,.22-.14,.33-.28,.12-.14,.22-.32,.32-.5,.1-.18,.19-.37,.28-.57,.17-.39,.33-.81,.47-1.22h0s.01-.03,.02-.05c.08-.22,.29-.38,.54-.37,.3,.01,.54,.26,.53,.57,0,.02,0,.05,0,.07-.04,.28-.09,.54-.12,.81-.03,.26-.05,.52-.04,.77,0,.25,.05,.48,.12,.65,.04,.08,.08,.14,.14,.18,.03,.02,.06,.04,.1,.05,.04,.01,.08,.02,.11,.02,.07,0,.15-.02,.24-.07,.09-.05,.17-.12,.26-.21,.17-.17,.31-.39,.44-.62,.25-.47,.44-.98,.58-1.51h0c.03-.11,.13-.17,.24-.14,.1,.03,.16,.12,.14,.22Z"/>
  <path class="cls-1" d="M35.43,8.56c-.04,.36-.1,.7-.18,1.05-.08,.35-.17,.69-.28,1.03-.11,.34-.24,.67-.4,1-.08,.17-.17,.33-.28,.49-.11,.16-.23,.32-.42,.47-.09,.07-.2,.14-.33,.19-.07,.02-.14,.04-.21,.05-.04,0-.08,0-.12,0-.04,0-.07,0-.1,0-.13-.01-.29-.06-.42-.15-.13-.09-.24-.21-.31-.32-.14-.24-.19-.46-.22-.66-.03-.21-.04-.4-.04-.59,0-.75,.12-1.44,.22-2.11l.07-.5c.02-.16,.04-.33,.06-.48,.01-.16,.02-.31,.02-.46s-.01-.28-.04-.38c-.01-.05-.03-.09-.04-.11-.01-.03-.02-.04-.04-.05s-.04-.03-.08-.04h-.02s0,0,0,0c0,0,0,0,0,0,0,0-.02,0-.03,0-.06,0-.16,.08-.25,.17-.09,.1-.19,.22-.27,.35-.17,.26-.31,.56-.43,.87-.12,.31-.22,.63-.3,.95s-.15,.66-.19,.99c-.04,.31-.06,.62-.04,.93,0,.03,0,.07,0,.1,0,.06-.03,.11-.08,.14,0,0,0,0-.01,.01-.07,.05-.16,.06-.23,.03-.21-.09-.4-.24-.54-.42-.15-.17-.25-.37-.34-.56-.17-.39-.25-.8-.29-1.2-.04-.4-.03-.8,.03-1.2,.03-.2,.07-.39,.13-.59,.06-.19,.13-.39,.25-.58,.12-.21,.39-.28,.6-.16,.15,.09,.23,.25,.21,.41v.04c-.03,.31-.06,.66-.09,1-.03,.34-.05,.68-.05,1.02,0,.21,0,.42,.02,.62,.02-.24,.05-.47,.09-.71,.06-.35,.14-.7,.24-1.05,.1-.35,.23-.69,.4-1.03,.09-.17,.19-.34,.32-.5,.07-.08,.14-.16,.23-.24,.09-.08,.2-.15,.33-.21,.07-.03,.14-.05,.22-.06,.04,0,.08,0,.12,0,.02,0,.04,0,.06,0h.05c.13,.01,.27,.05,.41,.11,.14,.07,.26,.17,.35,.28,.09,.11,.15,.23,.2,.34,.09,.23,.13,.44,.15,.64,.02,.2,.03,.39,.02,.58,0,.19-.02,.37-.03,.55-.02,.18-.04,.36-.06,.53-.05,.35-.11,.69-.16,1.03-.06,.33-.11,.66-.15,.98-.02,.16-.03,.31-.03,.45,0,.14,.02,.27,.05,.33,.01,.03,.02,.05,.03,.06,0,.01,.02,.03,.06,.04,0,0,.02,0,.03,0,0,0,0,0,.01,0,0,0,.02,0,.04,0,.03,0,.08-.03,.12-.06,.1-.06,.2-.17,.3-.28,.1-.12,.19-.25,.27-.39,.17-.28,.31-.58,.44-.89,.13-.31,.25-.63,.35-.95,.1-.32,.19-.65,.25-.98h0c.02-.11,.12-.18,.23-.16,.1,.02,.17,.11,.16,.21Z"/>
  <path class="cls-1" d="M40.96,8.54c-.1,.56-.24,1.12-.48,1.67-.12,.27-.26,.54-.46,.79-.1,.12-.22,.24-.37,.35-.15,.1-.34,.18-.55,.2-.1,0-.21,0-.31-.02-.1-.02-.2-.05-.29-.1-.19-.1-.34-.25-.45-.41-.11-.16-.17-.32-.23-.48-.05-.16-.09-.32-.11-.47,0,0,0,0,0,0-.02,.07-.05,.15-.08,.22-.08,.23-.18,.45-.32,.67-.07,.11-.15,.22-.25,.33-.1,.11-.22,.22-.38,.3-.16,.08-.36,.14-.56,.14-.05,0-.1,0-.15-.01-.06-.01-.12-.03-.18-.05-.11-.04-.21-.11-.29-.17-.16-.13-.25-.27-.32-.41-.07-.13-.12-.26-.17-.39-.08-.26-.13-.51-.16-.76-.03-.25-.04-.49-.03-.74,0-.25,.03-.49,.07-.74,.04-.25,.1-.49,.18-.73,.08-.24,.2-.49,.35-.72,.16-.23,.37-.46,.66-.62,.14-.08,.31-.14,.46-.16,.16-.03,.34-.03,.52,0,.18,.04,.36,.13,.5,.25,.14,.12,.24,.27,.31,.43,.06,.16,.09,.33,.08,.5-.01,.17-.07,.34-.18,.49-.1,.13-.29,.15-.43,.05-.08-.06-.12-.16-.12-.26v-.12s0-.1,0-.15c-.02-.05-.04-.11-.08-.15-.04-.04-.07-.07-.11-.08s-.07-.02-.11-.02c-.08,0-.21,.04-.3,.11-.1,.07-.2,.17-.28,.32-.17,.28-.29,.66-.35,1.05-.07,.39-.09,.8-.06,1.19,.01,.2,.04,.39,.09,.56,.02,.08,.05,.16,.08,.23,.03,.06,.06,.11,.08,.12,0,0,0,0,0,0,0,0-.01,0-.02,0,0,0,.01,0,.02,0,.02,0,.05,0,.09,0,.09-.03,.22-.14,.33-.28,.12-.14,.22-.32,.32-.5,.1-.18,.19-.37,.28-.57,.17-.39,.33-.81,.47-1.22h0s.01-.03,.02-.05c.08-.22,.29-.38,.54-.37,.3,.01,.54,.26,.53,.57,0,.02,0,.05,0,.07-.04,.28-.09,.54-.12,.81-.03,.26-.05,.52-.04,.77,0,.25,.05,.48,.12,.65,.04,.08,.08,.14,.14,.18,.03,.02,.06,.04,.1,.05,.04,.01,.08,.02,.11,.02,.07,0,.15-.02,.24-.07,.09-.05,.17-.12,.26-.21,.17-.17,.31-.39,.44-.62,.25-.47,.44-.98,.58-1.51h0c.03-.11,.13-.17,.24-.14,.1,.03,.16,.12,.14,.22Z"/>
</svg>