<?xml version="1.0" encoding="UTF-8"?>
<svg id="Capa_1" data-name="Capa 1" xmlns="http://www.w3.org/2000/svg" xmlns:xlink="http://www.w3.org/1999/xlink" viewBox="0 0 646.21 111.77">
  <defs>
    <style>
      .cls-1 {
        fill: url(#Degradado_sin_nombre_202-46);
      }

      .cls-1, .cls-2, .cls-3, .cls-4, .cls-5, .cls-6, .cls-7, .cls-8, .cls-9, .cls-10, .cls-11, .cls-12, .cls-13, .cls-14, .cls-15, .cls-16, .cls-17, .cls-18, .cls-19, .cls-20, .cls-21, .cls-22, .cls-23, .cls-24, .cls-25, .cls-26, .cls-27, .cls-28, .cls-29, .cls-30 {
        fill-rule: evenodd;
      }

      .cls-31 {
        fill: url(#Degradado_sin_nombre_202-21);
      }

      .cls-2 {
        fill: url(#Degradado_sin_nombre_202-16);
      }

      .cls-32 {
        fill: url(#Degradado_sin_nombre_202-54);
      }

      .cls-3 {
        fill: url(#Degradado_sin_nombre_202-49);
      }

      .cls-4 {
        fill: url(#Degradado_sin_nombre_202-12);
      }

      .cls-5 {
        fill: url(#Degradado_sin_nombre_202-47);
      }

      .cls-33 {
        fill: url(#Degradado_sin_nombre_202-30);
      }

      .cls-6 {
        fill: url(#Degradado_sin_nombre_202-66);
      }

      .cls-34 {
        fill: url(#Degradado_sin_nombre_202-26);
      }

      .cls-35 {
        fill: url(#Degradado_sin_nombre_202-39);
      }

      .cls-36 {
        fill: url(#Degradado_sin_nombre_202-8);
      }

      .cls-37 {
        fill: url(#Degradado_sin_nombre_202-20);
      }

      .cls-7 {
        fill: url(#Degradado_sin_nombre_202-10);
      }

      .cls-38 {
        fill: url(#Degradado_sin_nombre_202-28);
      }

      .cls-8 {
        fill: url(#Degradado_sin_nombre_202);
      }

      .cls-9 {
        fill: url(#Degradado_sin_nombre_202-9);
      }

      .cls-10 {
        fill: url(#Degradado_sin_nombre_202-19);
      }

      .cls-11 {
        fill: url(#Degradado_sin_nombre_202-18);
      }

      .cls-39 {
        fill: url(#Degradado_sin_nombre_202-7);
      }

      .cls-12 {
        fill: url(#Degradado_sin_nombre_202-11);
      }

      .cls-40 {
        fill: url(#Degradado_sin_nombre_202-50);
      }

      .cls-41 {
        fill: url(#Degradado_sin_nombre_202-4);
      }

      .cls-42 {
        fill: url(#Degradado_sin_nombre_202-35);
      }

      .cls-43 {
        fill: url(#Degradado_sin_nombre_202-37);
      }

      .cls-13 {
        fill: url(#Degradado_sin_nombre_202-45);
      }

      .cls-44 {
        fill: url(#Degradado_sin_nombre_202-53);
      }

      .cls-45 {
        fill: url(#Degradado_sin_nombre_202-24);
      }

      .cls-46 {
        fill: url(#Degradado_sin_nombre_202-59);
      }

      .cls-47 {
        fill: url(#Degradado_sin_nombre_202-57);
      }

      .cls-48 {
        fill: url(#Degradado_sin_nombre_202-65);
      }

      .cls-49 {
        fill: url(#Degradado_sin_nombre_202-62);
      }

      .cls-50 {
        fill: url(#Degradado_sin_nombre_202-29);
      }

      .cls-51 {
        fill: url(#Degradado_sin_nombre_202-41);
      }

      .cls-14 {
        fill: url(#Degradado_sin_nombre_202-33);
      }

      .cls-15 {
        fill: url(#Degradado_sin_nombre_202-42);
      }

      .cls-16 {
        fill: url(#Degradado_sin_nombre_202-51);
      }

      .cls-52 {
        fill: url(#Degradado_sin_nombre_202-38);
      }

      .cls-53 {
        fill: url(#Degradado_sin_nombre_202-23);
      }

      .cls-17 {
        fill: url(#Degradado_sin_nombre_202-13);
      }

      .cls-54 {
        fill: url(#Degradado_sin_nombre_202-56);
      }

      .cls-18 {
        fill: url(#Degradado_sin_nombre_202-25);
      }

      .cls-19 {
        fill: url(#Degradado_sin_nombre_202-36);
      }

      .cls-20 {
        fill: url(#Degradado_sin_nombre_202-58);
      }

      .cls-55 {
        fill: url(#Degradado_sin_nombre_202-32);
      }

      .cls-56 {
        fill: url(#Degradado_sin_nombre_202-6);
      }

      .cls-21 {
        fill: url(#Degradado_sin_nombre_202-34);
      }

      .cls-22 {
        fill: url(#Degradado_sin_nombre_202-14);
      }

      .cls-57 {
        fill: url(#Degradado_sin_nombre_202-27);
      }

      .cls-23 {
        fill: url(#Degradado_sin_nombre_202-52);
      }

      .cls-58 {
        fill: url(#Degradado_sin_nombre_202-63);
      }

      .cls-59 {
        fill: url(#Degradado_sin_nombre_202-17);
      }

      .cls-60 {
        fill: url(#Degradado_sin_nombre_202-2);
      }

      .cls-61 {
        fill: url(#Degradado_sin_nombre_202-5);
      }

      .cls-24 {
        fill: url(#Degradado_sin_nombre_202-64);
      }

      .cls-62 {
        fill: url(#Degradado_sin_nombre_202-40);
      }

      .cls-25 {
        fill: url(#Degradado_sin_nombre_202-3);
      }

      .cls-26 {
        fill: url(#Degradado_sin_nombre_202-31);
      }

      .cls-63 {
        fill: url(#Degradado_sin_nombre_202-55);
      }

      .cls-27 {
        fill: url(#Degradado_sin_nombre_202-48);
      }

      .cls-28 {
        fill: url(#Degradado_sin_nombre_202-15);
      }

      .cls-64 {
        fill: url(#Degradado_sin_nombre_202-60);
      }

      .cls-65 {
        fill: url(#Degradado_sin_nombre_202-61);
      }

      .cls-29 {
        fill: url(#Degradado_sin_nombre_202-44);
      }

      .cls-30 {
        fill: url(#Degradado_sin_nombre_202-43);
      }

      .cls-66 {
        fill: url(#Degradado_sin_nombre_202-22);
      }
    </style>
    <linearGradient id="Degradado_sin_nombre_202" data-name="Degradado sin nombre 202" x1="268.59" y1="430.02" x2="276.91" y2="430.02" gradientTransform="translate(0 506.75) scale(1 -1)" gradientUnits="userSpaceOnUse">
      <stop offset="0" stop-color="#646464"/>
      <stop offset=".07" stop-color="#959595"/>
      <stop offset=".19" stop-color="#818181"/>
      <stop offset=".28" stop-color="#818181"/>
      <stop offset=".51" stop-color="#efefef"/>
      <stop offset=".75" stop-color="#c3c3c3"/>
      <stop offset=".84" stop-color="#b7b7b7"/>
      <stop offset=".99" stop-color="#646464"/>
    </linearGradient>
    <linearGradient id="Degradado_sin_nombre_202-2" data-name="Degradado sin nombre 202" x1="207.82" y1="442.8" x2="254.68" y2="442.8" xlink:href="#Degradado_sin_nombre_202"/>
    <linearGradient id="Degradado_sin_nombre_202-3" data-name="Degradado sin nombre 202" x1="236.4" y1="443.71" x2="258.02" y2="443.71" xlink:href="#Degradado_sin_nombre_202"/>
    <linearGradient id="Degradado_sin_nombre_202-4" data-name="Degradado sin nombre 202" x1="202.34" y1="430.48" x2="319.81" y2="430.48" xlink:href="#Degradado_sin_nombre_202"/>
    <linearGradient id="Degradado_sin_nombre_202-5" data-name="Degradado sin nombre 202" x1="241.26" y1="406.93" x2="271.02" y2="406.93" xlink:href="#Degradado_sin_nombre_202"/>
    <linearGradient id="Degradado_sin_nombre_202-6" data-name="Degradado sin nombre 202" x1="249.11" y1="431.01" x2="312.85" y2="431.01" xlink:href="#Degradado_sin_nombre_202"/>
    <linearGradient id="Degradado_sin_nombre_202-7" data-name="Degradado sin nombre 202" x1="262.02" y1="435.36" x2="308.96" y2="435.36" xlink:href="#Degradado_sin_nombre_202"/>
    <linearGradient id="Degradado_sin_nombre_202-8" data-name="Degradado sin nombre 202" x1="252.05" y1="433.1" x2="293.13" y2="433.1" xlink:href="#Degradado_sin_nombre_202"/>
    <linearGradient id="Degradado_sin_nombre_202-9" data-name="Degradado sin nombre 202" x1="249.14" y1="415.14" x2="275.17" y2="415.14" xlink:href="#Degradado_sin_nombre_202"/>
    <linearGradient id="Degradado_sin_nombre_202-10" data-name="Degradado sin nombre 202" x1="254.86" y1="424.52" x2="275.96" y2="424.52" xlink:href="#Degradado_sin_nombre_202"/>
    <linearGradient id="Degradado_sin_nombre_202-11" data-name="Degradado sin nombre 202" x1="255.97" y1="421.52" x2="271.16" y2="421.52" xlink:href="#Degradado_sin_nombre_202"/>
    <linearGradient id="Degradado_sin_nombre_202-12" data-name="Degradado sin nombre 202" x1="240.6" y1="410.03" x2="255.74" y2="410.03" xlink:href="#Degradado_sin_nombre_202"/>
    <linearGradient id="Degradado_sin_nombre_202-13" data-name="Degradado sin nombre 202" x1="237.86" y1="447.49" x2="250.37" y2="447.49" xlink:href="#Degradado_sin_nombre_202"/>
    <linearGradient id="Degradado_sin_nombre_202-14" data-name="Degradado sin nombre 202" x1="261.68" y1="449.66" x2="267.78" y2="449.66" xlink:href="#Degradado_sin_nombre_202"/>
    <linearGradient id="Degradado_sin_nombre_202-15" data-name="Degradado sin nombre 202" x1="249.14" y1="453.74" x2="261.71" y2="453.74" xlink:href="#Degradado_sin_nombre_202"/>
    <linearGradient id="Degradado_sin_nombre_202-16" data-name="Degradado sin nombre 202" x1="225.33" y1="437.39" x2="247.28" y2="437.39" xlink:href="#Degradado_sin_nombre_202"/>
    <linearGradient id="Degradado_sin_nombre_202-17" data-name="Degradado sin nombre 202" x1="220.31" y1="430.4" x2="240.22" y2="430.4" xlink:href="#Degradado_sin_nombre_202"/>
    <linearGradient id="Degradado_sin_nombre_202-18" data-name="Degradado sin nombre 202" x1="264.74" y1="453.58" x2="274.75" y2="453.58" xlink:href="#Degradado_sin_nombre_202"/>
    <linearGradient id="Degradado_sin_nombre_202-19" data-name="Degradado sin nombre 202" x1="113.22" y1="478.03" x2="165.64" y2="478.03" xlink:href="#Degradado_sin_nombre_202"/>
    <linearGradient id="Degradado_sin_nombre_202-20" data-name="Degradado sin nombre 202" x1="91.73" y1="464.38" x2="216.64" y2="464.38" xlink:href="#Degradado_sin_nombre_202"/>
    <linearGradient id="Degradado_sin_nombre_202-21" data-name="Degradado sin nombre 202" x1="163.63" y1="448.9" x2="210.46" y2="448.9" xlink:href="#Degradado_sin_nombre_202"/>
    <linearGradient id="Degradado_sin_nombre_202-22" data-name="Degradado sin nombre 202" x1="66.03" y1="446" x2="168.04" y2="446" xlink:href="#Degradado_sin_nombre_202"/>
    <linearGradient id="Degradado_sin_nombre_202-23" data-name="Degradado sin nombre 202" x1="126.73" y1="475.57" x2="213.53" y2="475.57" xlink:href="#Degradado_sin_nombre_202"/>
    <linearGradient id="Degradado_sin_nombre_202-24" data-name="Degradado sin nombre 202" x1="158.5" y1="439.11" x2="197.07" y2="439.11" xlink:href="#Degradado_sin_nombre_202"/>
    <linearGradient id="Degradado_sin_nombre_202-25" data-name="Degradado sin nombre 202" x1="111.49" y1="445.18" x2="127.87" y2="445.18" xlink:href="#Degradado_sin_nombre_202"/>
    <linearGradient id="Degradado_sin_nombre_202-26" data-name="Degradado sin nombre 202" x1="70.6" y1="442.17" x2="88.05" y2="442.17" xlink:href="#Degradado_sin_nombre_202"/>
    <linearGradient id="Degradado_sin_nombre_202-27" data-name="Degradado sin nombre 202" x1="155.9" y1="431.07" x2="193.65" y2="431.07" xlink:href="#Degradado_sin_nombre_202"/>
    <linearGradient id="Degradado_sin_nombre_202-28" data-name="Degradado sin nombre 202" x1="20.62" y1="438.5" x2="152.62" y2="438.5" xlink:href="#Degradado_sin_nombre_202"/>
    <linearGradient id="Degradado_sin_nombre_202-29" data-name="Degradado sin nombre 202" x1="67.64" y1="457.09" x2="176.24" y2="457.09" xlink:href="#Degradado_sin_nombre_202"/>
    <linearGradient id="Degradado_sin_nombre_202-30" data-name="Degradado sin nombre 202" x1="0" y1="458.82" x2="54.32" y2="458.82" xlink:href="#Degradado_sin_nombre_202"/>
    <linearGradient id="Degradado_sin_nombre_202-31" data-name="Degradado sin nombre 202" x1="2.12" y1="473.36" x2="8.87" y2="473.36" xlink:href="#Degradado_sin_nombre_202"/>
    <linearGradient id="Degradado_sin_nombre_202-32" data-name="Degradado sin nombre 202" x1="31.19" y1="433.41" x2="161.95" y2="433.41" xlink:href="#Degradado_sin_nombre_202"/>
    <linearGradient id="Degradado_sin_nombre_202-33" data-name="Degradado sin nombre 202" x1="78.32" y1="421.85" x2="154.26" y2="421.85" xlink:href="#Degradado_sin_nombre_202"/>
    <linearGradient id="Degradado_sin_nombre_202-34" data-name="Degradado sin nombre 202" x1="12.69" x2="21" gradientTransform="translate(390.32 506.75) rotate(-180)" xlink:href="#Degradado_sin_nombre_202"/>
    <linearGradient id="Degradado_sin_nombre_202-35" data-name="Degradado sin nombre 202" x1="-48.07" y1="442.8" x2="-1.22" y2="442.8" gradientTransform="translate(390.32 506.75) rotate(-180)" xlink:href="#Degradado_sin_nombre_202"/>
    <linearGradient id="Degradado_sin_nombre_202-36" data-name="Degradado sin nombre 202" x1="-19.49" y1="443.71" x2="2.13" y2="443.71" gradientTransform="translate(390.32 506.75) rotate(-180)" xlink:href="#Degradado_sin_nombre_202"/>
    <linearGradient id="Degradado_sin_nombre_202-37" data-name="Degradado sin nombre 202" x1="-53.55" y1="430.48" x2="63.91" y2="430.48" gradientTransform="translate(390.32 506.75) rotate(-180)" xlink:href="#Degradado_sin_nombre_202"/>
    <linearGradient id="Degradado_sin_nombre_202-38" data-name="Degradado sin nombre 202" x1="-14.63" y1="406.93" x2="15.13" y2="406.93" gradientTransform="translate(390.32 506.75) rotate(-180)" xlink:href="#Degradado_sin_nombre_202"/>
    <linearGradient id="Degradado_sin_nombre_202-39" data-name="Degradado sin nombre 202" x1="-6.78" y1="431.01" x2="56.96" y2="431.01" gradientTransform="translate(390.32 506.75) rotate(-180)" xlink:href="#Degradado_sin_nombre_202"/>
    <linearGradient id="Degradado_sin_nombre_202-40" data-name="Degradado sin nombre 202" x1="6.13" y1="435.36" x2="53.06" y2="435.36" gradientTransform="translate(390.32 506.75) rotate(-180)" xlink:href="#Degradado_sin_nombre_202"/>
    <linearGradient id="Degradado_sin_nombre_202-41" data-name="Degradado sin nombre 202" x1="-3.84" y1="433.1" x2="37.24" y2="433.1" gradientTransform="translate(390.32 506.75) rotate(-180)" xlink:href="#Degradado_sin_nombre_202"/>
    <linearGradient id="Degradado_sin_nombre_202-42" data-name="Degradado sin nombre 202" x1="-6.75" y1="415.14" x2="19.27" y2="415.14" gradientTransform="translate(390.32 506.75) rotate(-180)" xlink:href="#Degradado_sin_nombre_202"/>
    <linearGradient id="Degradado_sin_nombre_202-43" data-name="Degradado sin nombre 202" x1="-1.03" y1="424.52" x2="20.07" y2="424.52" gradientTransform="translate(390.32 506.75) rotate(-180)" xlink:href="#Degradado_sin_nombre_202"/>
    <linearGradient id="Degradado_sin_nombre_202-44" data-name="Degradado sin nombre 202" x1=".08" y1="421.52" x2="15.26" y2="421.52" gradientTransform="translate(390.32 506.75) rotate(-180)" xlink:href="#Degradado_sin_nombre_202"/>
    <linearGradient id="Degradado_sin_nombre_202-45" data-name="Degradado sin nombre 202" x1="-15.29" y1="410.03" x2="-.15" y2="410.03" gradientTransform="translate(390.32 506.75) rotate(-180)" xlink:href="#Degradado_sin_nombre_202"/>
    <linearGradient id="Degradado_sin_nombre_202-46" data-name="Degradado sin nombre 202" x1="-18.04" y1="447.49" x2="-5.52" y2="447.49" gradientTransform="translate(390.32 506.75) rotate(-180)" xlink:href="#Degradado_sin_nombre_202"/>
    <linearGradient id="Degradado_sin_nombre_202-47" data-name="Degradado sin nombre 202" x1="5.78" y1="449.66" x2="11.88" y2="449.66" gradientTransform="translate(390.32 506.75) rotate(-180)" xlink:href="#Degradado_sin_nombre_202"/>
    <linearGradient id="Degradado_sin_nombre_202-48" data-name="Degradado sin nombre 202" x1="-6.76" y1="453.74" x2="5.81" y2="453.74" gradientTransform="translate(390.32 506.75) rotate(-180)" xlink:href="#Degradado_sin_nombre_202"/>
    <linearGradient id="Degradado_sin_nombre_202-49" data-name="Degradado sin nombre 202" x1="-30.56" y1="437.39" x2="-8.62" y2="437.39" gradientTransform="translate(390.32 506.75) rotate(-180)" xlink:href="#Degradado_sin_nombre_202"/>
    <linearGradient id="Degradado_sin_nombre_202-50" data-name="Degradado sin nombre 202" x1="-35.58" y1="430.4" x2="-15.67" y2="430.4" gradientTransform="translate(390.32 506.75) rotate(-180)" xlink:href="#Degradado_sin_nombre_202"/>
    <linearGradient id="Degradado_sin_nombre_202-51" data-name="Degradado sin nombre 202" x1="8.85" y1="453.58" x2="18.86" y2="453.58" gradientTransform="translate(390.32 506.75) rotate(-180)" xlink:href="#Degradado_sin_nombre_202"/>
    <linearGradient id="Degradado_sin_nombre_202-52" data-name="Degradado sin nombre 202" x1="-142.67" y1="478.02" x2="-90.25" y2="478.02" gradientTransform="translate(390.32 506.75) rotate(-180)" xlink:href="#Degradado_sin_nombre_202"/>
    <linearGradient id="Degradado_sin_nombre_202-53" data-name="Degradado sin nombre 202" x1="-164.16" y1="464.38" x2="-39.25" y2="464.38" gradientTransform="translate(390.32 506.75) rotate(-180)" xlink:href="#Degradado_sin_nombre_202"/>
    <linearGradient id="Degradado_sin_nombre_202-54" data-name="Degradado sin nombre 202" x1="-92.26" y1="448.9" x2="-45.44" y2="448.9" gradientTransform="translate(390.32 506.75) rotate(-180)" xlink:href="#Degradado_sin_nombre_202"/>
    <linearGradient id="Degradado_sin_nombre_202-55" data-name="Degradado sin nombre 202" x1="-189.87" y1="446" x2="-87.85" y2="446" gradientTransform="translate(390.32 506.75) rotate(-180)" xlink:href="#Degradado_sin_nombre_202"/>
    <linearGradient id="Degradado_sin_nombre_202-56" data-name="Degradado sin nombre 202" x1="-129.17" y1="475.57" x2="-42.36" y2="475.57" gradientTransform="translate(390.32 506.75) rotate(-180)" xlink:href="#Degradado_sin_nombre_202"/>
    <linearGradient id="Degradado_sin_nombre_202-57" data-name="Degradado sin nombre 202" x1="-97.4" y1="439.11" x2="-58.83" y2="439.11" gradientTransform="translate(390.32 506.75) rotate(-180)" xlink:href="#Degradado_sin_nombre_202"/>
    <linearGradient id="Degradado_sin_nombre_202-58" data-name="Degradado sin nombre 202" x1="-144.39" y1="445.18" x2="-128.03" y2="445.18" gradientTransform="translate(390.32 506.75) rotate(-180)" xlink:href="#Degradado_sin_nombre_202"/>
    <linearGradient id="Degradado_sin_nombre_202-59" data-name="Degradado sin nombre 202" x1="-185.3" y1="442.17" x2="-167.84" y2="442.17" gradientTransform="translate(390.32 506.75) rotate(-180)" xlink:href="#Degradado_sin_nombre_202"/>
    <linearGradient id="Degradado_sin_nombre_202-60" data-name="Degradado sin nombre 202" x1="-99.98" y1="431.07" x2="-62.23" y2="431.07" gradientTransform="translate(390.32 506.75) rotate(-180)" xlink:href="#Degradado_sin_nombre_202"/>
    <linearGradient id="Degradado_sin_nombre_202-61" data-name="Degradado sin nombre 202" x1="-235.27" y1="438.5" x2="-103.27" y2="438.5" gradientTransform="translate(390.32 506.75) rotate(-180)" xlink:href="#Degradado_sin_nombre_202"/>
    <linearGradient id="Degradado_sin_nombre_202-62" data-name="Degradado sin nombre 202" x1="-188.27" y1="457.09" x2="-79.66" y2="457.09" gradientTransform="translate(390.32 506.75) rotate(-180)" xlink:href="#Degradado_sin_nombre_202"/>
    <linearGradient id="Degradado_sin_nombre_202-63" data-name="Degradado sin nombre 202" x1="-255.89" y1="458.82" x2="-201.57" y2="458.82" gradientTransform="translate(390.32 506.75) rotate(-180)" xlink:href="#Degradado_sin_nombre_202"/>
    <linearGradient id="Degradado_sin_nombre_202-64" data-name="Degradado sin nombre 202" x1="-253.77" y1="473.36" x2="-247.03" y2="473.36" gradientTransform="translate(390.32 506.75) rotate(-180)" xlink:href="#Degradado_sin_nombre_202"/>
    <linearGradient id="Degradado_sin_nombre_202-65" data-name="Degradado sin nombre 202" x1="-224.7" y1="433.41" x2="-93.94" y2="433.41" gradientTransform="translate(390.32 506.75) rotate(-180)" xlink:href="#Degradado_sin_nombre_202"/>
    <linearGradient id="Degradado_sin_nombre_202-66" data-name="Degradado sin nombre 202" x1="-177.58" y1="421.85" x2="-101.64" y2="421.85" gradientTransform="translate(390.32 506.75) rotate(-180)" xlink:href="#Degradado_sin_nombre_202"/>
  </defs>
  <g>
    <path class="cls-8" d="M269.25,77.62c1.34-1.57,3.71-2.53,5.57-2.54,.88,0,2.42,.9,2.02,2.26-.49,1.66-2.49,.28-3.42,.18-1.36-.14-3.2-.07-4.83,.87,0,0,.66-.77,.66-.77Z"/>
    <g>
      <path class="cls-60" d="M209.92,72.33c16.21,25.53,51.73,9.09,40.15-18.32-5.83-13.83-26.15-16.39-32.91-2.3-2.46,5.14-1.13,13.32,4.95,16.13,10.38,4.79,15.67-10.5,6.73-12.07l-.04-.48c10.05,1.9,3.88,18.17-7.4,12.95-6.6-3.05-7.92-11.72-5.26-17.29,7.34-15.3,28.71-13.12,35.67,1.41,13.99,29.18-26.9,50.13-43.99,21.45l2.09-1.48h0Z"/>
      <path class="cls-25" d="M236.41,88.72c6.76-1.88,9.29-3.52,13.42-7.13,2.54-2.22,5-5.64,6.35-8.74,1.38-3.18,1.83-6.34,1.84-9.74,.02-6.01-2-11.71-5.49-16.55-2.68-3.72-8.09-7.79-14.36-9.19l-.62,.49c6.12,1.36,11.39,5.33,14,8.95,3.4,4.72,5.36,10.27,5.35,16.13,0,3.31-.45,6.4-1.8,9.49-1.31,3.03-3.13,5.81-5.47,8.12-3.28,3.23-6.08,4.91-13.06,7.49l-.17,.66v.02Z"/>
      <path class="cls-41" d="M203.16,74.01c-.44,.4-.82,.65-.82,.65,11.7,17.61,28.11,17.73,31.75,17.63,9.52-.26,18.2-5.84,24.68-12.67,2.39-2.52,4.99-5.76,7.09-8.52,3.88-5.09,6.81-9.34,12.3-12.87,1.89-1.22,3.94-2.18,6.08-2.86,8.02-2.55,17.21-.9,23.25,5.14,4.76,4.76,6.8,11.44,6.99,18.04,.48,16.67-18.87,28.62-32.2,17.5-4.86-4.06-7.28-12.94-2.43-18.59,8.28-9.63,20.67,3.39,12.37,9.1l.18,.5c9.28-6.55-4.46-20.15-13.45-9.68-5.26,6.13-2.6,15.5,2.66,19.91,14.47,12.08,37.85-.72,38.19-18.62,.38-20.07-20.78-34.18-39.37-25.57-6.15,2.85-10.9,9.51-14.93,14.71-6.18,8-14.26,18.73-24.71,21.13-7.67,1.76-17.12,.27-24.03-3.32-1.44-.75-14.49-10.81-13.6-11.61h0Z"/>
      <path class="cls-61" d="M246.58,89.15c8.09-2.49,17.79-1.9,22.95,6.9,3.5,6,.71,15.72-6.98,15.72-3.25,0-5.76-2.75-6.04-5.64,7.09,2.55,12.75-2.95,10.67-8.97-4-11.62-17.9-8.29-25.92-6.34l5.32-1.68h0Z"/>
      <path class="cls-56" d="M250.5,87.51c9.48-5.74,12.44-9.77,16.9-15.33,6.66-8.3,13.14-15.68,24.54-15.72,5.5-.02,11.41,2.59,15.09,6.74,4.15,4.68,5.97,12.64,4.67,18.93-1.15,5.58-3.96,9.63-8.42,12.92l.09,.52c4.58-3.39,7.87-7.64,9.06-13.38,1.33-6.46-.54-14.65-4.8-19.46-3.78-4.27-10.25-6.84-15.91-6.82-11.72,.04-18.38,7.63-25.23,16.16-4.59,5.72-8.41,10.51-17.38,15.76l1.4-.32h0Z"/>
      <path class="cls-39" d="M304.76,85.66c-1.23,.54-2.27,.17-1.69-1.68,.54-1.76,2.05-2.46,3.11-3.8,1.04-1.32,1.45-2.9,1.59-4.58,.3-3.59-1.07-7.21-3.12-10.11-6.91-9.78-20.62-11.42-31.71,.07-3.29,3.41-4.88,5.97-9.67,11.51l-1.25,.39c5.04-5.83,6.71-8.53,10.18-12.12,11.68-12.1,26.12-10.37,33.4-.07,2.88,4.07,4.06,9.36,2.93,14.25-.45,1.96-1.33,4.59-3.11,5.79-.22,.14-.44,.27-.66,.36h0Z"/>
      <path class="cls-36" d="M255.87,84.45c2.54-1.68,5.38-3.96,6.85-5.47,3.22-3.31,5.07-5.94,7.6-9.01,1.09-1.32,2.39-2.61,3.6-3.81,2.6-2.59,6.07-4.56,9.98-5.45,4.35-.99,9.07,.41,9.23,5.52-.83-3.36-3.9-3.79-6.12-2.94-3.3,1.27-4.18,4.54-7.24,6.92-2.49,1.94-6.17,3.73-8.96,5.09-3.32,1.61-5.21,3.14-8.35,5.11-2.92,1.83-6.67,4.56-10.41,6.49l3.82-2.45h0Z"/>
      <path class="cls-9" d="M249.14,88.78c4.26-2.49,11.07-1.93,15.33-.33,4.13,1.56,5.82,4.83,6.59,6.7,.63,1.55,2.02,3.09,3.59,1.17,2.74-3.33-6.22-8.19-8.25-9.01-5.52-2.22-12.21-1.48-17.26,1.47Z"/>
      <path class="cls-7" d="M272.16,83.19c-.74-.11-1.43-.16-1.83-.25-5.18-1.26-11.02,.17-15.47,2.98,3.85-2.44,16.7-10.88,20.61-5.77,1.67,2.17-1.33,3.33-3.32,3.05h0Z"/>
      <path class="cls-12" d="M268.21,86.85c-.49-.2-.95-.35-1.2-.49-3.31-1.74-7.54-1.78-11.04-.63,3.04-1,13.24-4.54,15.03-.39,.76,1.76-1.48,2.04-2.78,1.51h-.01Z"/>
      <path class="cls-4" d="M240.6,90.1s.36,.66,.39,1.05c7.39-1.95,12.28,1.87,12.92,4.87,.72,3.08-.69,6.02-2.81,6.41-2.14,.54-2.72-.23-2.76-1-.13-.71,.55-.69,1.15-.61,1.12,.24,2.44-1.03,2.07-2.77-.46-1.67-1.7-2.61-3.84-2.07-2.05,.48-2.97,2.65-2.62,4.53,.48,2.06,2.8,4.07,6.2,3.24,3.32-.76,5-4.58,4.27-8.04-.76-3.31-5.4-7.87-14.97-5.61h0Z"/>
      <path class="cls-17" d="M248.49,71.94c2.08-4.47,.9-11.2-1.1-15.29-1.93-3.97-5.35-5.35-7.28-5.94-1.61-.49-3.26-1.72-1.5-3.47,3.06-3.04,8.74,5.43,9.74,7.38,2.72,5.28,2.61,12.02,.15,17.32h0Z"/>
      <path class="cls-22" d="M262.36,49.4c.22,.83,.38,1.59,.54,2.03,2.14,5.69,1.34,12.5-1.22,17.92,2.23-4.7,9.99-20.42,3.67-24.13-2.69-1.58-3.59,1.97-2.99,4.19h0Z"/>
      <path class="cls-28" d="M259.37,71.11c4.72-9.01,2.12-30.02-6.12-35.52-2.64-1.76-4.99,.15-3.79,3.38,1.13,3.07,4.07,4.9,5.94,7.46,2.17,2.98,3.95,6.48,4.64,10.12,.69,3.68,.91,7.25,.13,11.1l-.79,3.45h-.01Z"/>
      <path class="cls-2" d="M225.34,85.9c4.91,.47,6.99,.03,10.61-1.29,2.23-.81,4.71-2.44,6.38-4.13,1.71-1.74,2.81-3.7,3.67-5.93,1.53-3.95,1.64-8.19,.57-12.25-.82-3.12-3.34-7.16-7.11-9.66l-.53,.16c3.67,2.44,6.13,6.37,6.93,9.41,1.04,3.95,.93,8.1-.56,11.94-.84,2.17-1.91,4.09-3.58,5.78-1.63,1.65-3.52,3.02-5.64,3.95-2.97,1.29-5.23,1.69-10.47,1.62l-.28,.39h0Z"/>
      <path class="cls-59" d="M223.59,82.28c5,2.18,11.26,2.51,15.2-2.75,2.68-3.58,1.6-10.01-3.33-10.57-2.08-.23-3.89,1.34-4.27,3.17,4.72-1.12,7.95,2.81,6.18,6.52-3.41,7.15-12.06,4.01-17.06,2.17l3.28,1.46h0Z"/>
      <path class="cls-11" d="M269.47,45.56c.05,.86,.04,1.64,.12,2.1,.94,6-1.23,12.51-4.85,17.29,3.14-4.15,13.94-17.95,8.51-22.88-2.31-2.1-3.91,1.2-3.78,3.49Z"/>
    </g>
  </g>
  <g>
    <path class="cls-10" d="M161.49,46.79c-3.9,6.84-23.89,11.64-35.03,4.26-7.68-5.09-12.63-15.79-10.54-26.95,4.16-22.28,35.58-31.78,49.72-6.15l-1.93-6.71C150.37-8.95,119.46-.18,113.9,23.58c-2.54,10.85,2.28,23.65,10.63,29,13.78,8.82,28.5,4.17,33.12-2.39l3.84-3.41h0Z"/>
    <path class="cls-37" d="M109.56,14.82c-10.21,4.36-18,18.89-14.98,27.29h.02c.28-4.89,3.96-4.27,4.01-5.58-1.12,18.64,11.82,33.09,26.76,30.72,18.98-3,34.2-22.33,50.4-31.4,8.58-4.81,20.49-8.5,34.05-.16,10.69,6.59,7.47,22.86-.47,26.54-10.94,5.06-19.87-5.53-16.07-11.97l2.11-1.26c-3.98,6.76,1.41,13.17,9.11,11.25,8.9-2.22,9.63-13.42,4.64-19.21-7.4-8.58-21.67-6.88-30.67-1.83-17.01,9.52-33.12,26.39-52.91,30.31-14.08,2.78-30.98-8.9-33.43-22.48-2.19-12.08,4.76-26.75,16.47-31.76l.98-.45h-.02Z"/>
    <path class="cls-31" d="M196.44,53.39c3.13,5.89,10.93,5.73,12.74-1.23,1.64-6.28-4.62-11.91-9.96-13.29-17.18-4.45-35.6,12.52-28.42,30.01-1.34,.8-3.05-.85-4.18-1.61,5.59,12.79,18.76,2.62,12.31-2.15,10.14,3.71,3.95,15.97-4.93,13.65-12.39-3.24-11.99-19.36-7.49-26.63,7.31-11.82,32.38-23.81,42.19-7.7,5.67,9.3-3.45,19.41-12.41,11.49l.15-2.53h0Z"/>
    <path class="cls-66" d="M163.27,54.29c-6.59,4.35-13.5,9.09-19.85,13.08-12.41,7.8-29.68,8.63-42.33,.9-7.91-4.84-15.77-15.81-26.26-13.68-7.54,1.53-9.94,8.07-7.59,15.77l-.5-1.92c-2.07-6.77,.31-13.6,7.85-15.14,10.49-2.13,18.34,8.84,26.26,13.69,12.65,7.74,29.1,5.57,42.49-1.97,6.54-3.68,18.1-12.83,24.7-17.18l-4.77,6.45h0Z"/>
    <path class="cls-53" d="M159.78,27.99c1.22-7.77-7.83-12.67-15.77-12.58,1.4-.83,2.25-1.69,3.65-2.22-10.29-2.18-18.59,5.88-20.57,15.32-2.53,12.06,8.57,22.09,20.25,20.94,17.67-1.74,26.52-22.9,48.69-19.61,6.25,.93,9.91,2.42,17.5,9.71-8.07-15.23-26.81-12.49-35.86-8.02-11.93,5.9-15.35,11-24.9,14.89-9.52,3.88-19.6-1.5-20.76-11.95-.99-9,6.69-19.74,17.94-17.45,6.13,1.25,11.94,9.02,8.17,15.34,.92-1.54,1.45-3,1.66-4.37h0Z"/>
    <path class="cls-45" d="M164.05,53.11c-13.95,22.44,15.99,40.6,29.5,21.88,6.81-9.43-1.09-24.17-13.53-22.78-4.52,.51-9.47,4.73-8.74,9.81,1.25,8.69,13.85,5.84,11.06-.6l.3-.21c3.06,7.29-10.58,9.95-11.94,.53-.8-5.53,4.48-9.93,9.4-10.49,13.5-1.53,21.25,13.2,14.46,23.66-13.64,21.01-45.95,2.65-33.11-20.29l2.61-1.51h0Z"/>
    <path class="cls-18" d="M127.87,68.29s-.41-.69-.45-1.09c-7.75,2.37-13.1-1.47-13.92-4.62-.88-3.24,.48-6.42,2.71-6.92,2.25-.66,2.89,.12,2.97,.94,.17,.74-.56,.75-1.2,.69-1.19-.2-2.55,1.19-2.08,3.02,.55,1.75,1.91,2.7,4.16,2.03,2.16-.59,3.04-2.92,2.59-4.91-.6-2.15-3.14-4.19-6.72-3.17-3.49,.95-5.11,5.06-4.18,8.71,.95,3.48,6.06,8.11,16.11,5.32h0Z"/>
    <path class="cls-34" d="M83.85,55.78c-12.41-3.8-17.75,12.8-6.88,17.75,5.49,2.5,12.16-3,10.19-9.17-.72-2.24-3.36-4.33-5.87-3.44-4.28,1.52-1.56,7.62,1.42,5.55l.14,.13c-3.39,2.29-6.12-4.36-1.48-6.01,2.72-.96,5.5,1.27,6.27,3.71,2.14,6.7-4.54,12.12-10.54,9.74-12.04-4.79-6-23.06,6.94-18.87l-.2,.6h.01Z"/>
    <path class="cls-57" d="M163.75,54c-1.8,.91-2.93,2.02-3.87,3.75-1.87,3.45-3.27,7.19-3.34,11.13-.06,4.29,1.12,9.37,3.01,13.2,6.05,12.22,21.67,19.74,34.1,10.8l-.64,.57c-12.44,8.94-28.06,1.42-34.1-10.8-1.9-3.84-3.08-8.92-3.01-13.2,.06-3.94,1.11-8.05,2.97-11.49,.94-1.73,2.43-2.48,4.23-3.39l.64-.57h0Z"/>
    <path class="cls-38" d="M146.01,61.6c-8.79,5.06-18,10.6-26.45,15.22-16.51,9.02-38.7,8.76-54.31-2.14-9.77-6.82-18.98-21.49-32.59-19.58-9.78,1.38-13.36,9.57-10.95,19.62l-.5-2.5c-2.12-8.84,1.46-17.41,11.24-18.79,13.6-1.92,22.82,12.76,32.59,19.58,15.61,10.9,36.86,9.39,54.59,.77,8.67-4.21,24.2-15.03,32.99-20.1l-6.61,7.9v.02Z"/>
    <path class="cls-50" d="M170.8,44.19c-7.23,4.17-14.81,8.72-21.76,12.52-13.59,7.43-31.84,7.21-44.69-1.76-8.04-5.61-15.62-17.69-26.81-16.11-8.05,1.13-10.99,7.87-9.01,16.15l-.41-2.06c-1.75-7.27,1.19-14.32,9.24-15.46,11.2-1.58,18.78,10.5,26.81,16.11,12.84,8.97,30.33,7.73,44.92,.63,7.13-3.46,19.92-12.37,27.15-16.53l-5.44,6.5h0Z"/>
    <path class="cls-33" d="M21.71,47.15c.71-.98,1.13-2.2,1.22-3.42,.16-1.94-.41-5.84-3.21-4.48-.57-5.04-7.35-5.71-11.23-4.26-3.52,1.31-6.15,4.3-7.5,7.74-2.79,7.16,.4,15.24,8.34,16.75,8.25,1.57,13.37-5.31,19.44-7.2,4.72-1.47,11.75-1.43,16.13,.88,3.84,2.03,5.34,2.4,9.42,8.38-2.68-8.64-13.92-11.92-20.84-11.26-7.92,.76-13.07,6.66-20.06,7.93-6.96,1.27-12.99-3.79-12.29-10.98,.6-6.2,7.3-12.36,14.55-9.22,4.23,1.83,6.5,7.09,3.49,10.92,1.06-.28,1.92-.94,2.54-1.8v.02Z"/>
    <path class="cls-26" d="M4.83,38.28s-.12-.4-.26-.55c3.56-2.14,3.92-5.5,3-6.89-.93-1.45-2.61-2.02-3.57-1.33-1.02,.63-.94,1.14-.66,1.46,.23,.32,.48,.04,.68-.23,.33-.52,1.33-.55,1.87,.25,.48,.81,.37,1.65-.65,2.28-.97,.63-2.16,.16-2.76-.69-.62-.96-.52-2.63,1.09-3.64,1.56-1.01,3.68-.21,4.76,1.39,1.01,1.55,1.02,5.09-3.49,7.96h-.01Z"/>
    <path class="cls-55" d="M156.44,62.3c-8.1,6.34-16.56,13.22-24.38,19.07-15.29,11.43-37.61,14.34-54.85,5.62-10.79-5.45-22.13-18.87-35.52-15-9.62,2.78-12.05,11.52-8.18,21.27l-.86-2.44c-3.39-8.57-1.03-17.69,8.59-20.47,13.39-3.87,24.74,9.55,35.53,15,17.24,8.71,38.36,4.16,54.93-7.03,8.1-5.47,22.15-18.56,30.25-24.9l-5.51,8.87h0Z"/>
    <path class="cls-14" d="M153.59,66.05c.22-.22,.44-.43,.67-.65-8.86,8.59-17.23,37.81-34.54,28.01,1.48,.83-4.26,8.51-5.32,9.14-3.82,2.27-9.38,2.06-13.34,1.2-8.78-1.91-14.87-11.26-22.74,.66,.83-15.67,23.2-9.47,32.47-10.78,17.44-2.46,30.64-15.77,42.81-27.59h-.01Z"/>
  </g>
  <g>
    <path class="cls-21" d="M376.97,77.62c-1.34-1.57-3.71-2.53-5.57-2.54-.88,0-2.42,.9-2.02,2.26,.49,1.66,2.49,.28,3.42,.18,1.36-.14,3.2-.07,4.83,.87,0,0-.66-.77-.66-.77Z"/>
    <g>
      <path class="cls-42" d="M436.29,72.33c-16.21,25.53-51.73,9.09-40.15-18.32,5.83-13.83,26.15-16.39,32.91-2.3,2.46,5.14,1.13,13.32-4.95,16.13-10.38,4.79-15.67-10.5-6.73-12.07l.04-.48c-10.05,1.9-3.88,18.17,7.4,12.95,6.6-3.05,7.92-11.72,5.26-17.29-7.34-15.3-28.71-13.12-35.67,1.41-13.99,29.18,26.9,50.13,43.99,21.45l-2.09-1.48h-.01Z"/>
      <path class="cls-19" d="M409.8,88.72c-6.76-1.88-9.29-3.52-13.42-7.13-2.54-2.22-5-5.64-6.35-8.74-1.38-3.18-1.83-6.34-1.84-9.74-.02-6.01,2-11.71,5.49-16.55,2.68-3.72,8.09-7.79,14.36-9.19l.62,.49c-6.12,1.36-11.39,5.33-14,8.95-3.4,4.72-5.36,10.27-5.35,16.13,0,3.31,.45,6.4,1.8,9.49,1.31,3.03,3.13,5.81,5.47,8.12,3.28,3.23,6.08,4.91,13.06,7.49l.17,.66v.02Z"/>
      <path class="cls-43" d="M443.05,74.01c.44,.4,.82,.65,.82,.65-11.7,17.61-28.11,17.73-31.75,17.63-9.52-.26-18.2-5.84-24.68-12.67-2.39-2.52-4.99-5.76-7.09-8.52-3.88-5.09-6.81-9.34-12.3-12.87-1.89-1.22-3.94-2.18-6.08-2.86-8.02-2.55-17.21-.9-23.25,5.14-4.76,4.76-6.8,11.44-6.99,18.04-.48,16.67,18.87,28.62,32.2,17.5,4.86-4.06,7.28-12.94,2.43-18.59-8.28-9.63-20.67,3.39-12.37,9.1l-.18,.5c-9.28-6.55,4.46-20.15,13.45-9.68,5.26,6.13,2.6,15.5-2.66,19.91-14.47,12.08-37.85-.72-38.19-18.62-.38-20.07,20.78-34.18,39.37-25.57,6.15,2.85,10.9,9.51,14.93,14.71,6.18,8,14.26,18.73,24.71,21.13,7.67,1.76,17.12,.27,24.03-3.32,1.44-.75,14.49-10.81,13.6-11.61h0Z"/>
      <path class="cls-52" d="M399.63,89.15c-8.09-2.49-17.79-1.9-22.95,6.9-3.5,6-.71,15.72,6.98,15.72,3.25,0,5.76-2.75,6.04-5.64-7.09,2.55-12.75-2.95-10.67-8.97,4-11.62,17.9-8.29,25.92-6.34l-5.32-1.68h0Z"/>
      <path class="cls-35" d="M395.71,87.51c-9.48-5.74-12.44-9.77-16.9-15.33-6.66-8.3-13.14-15.68-24.54-15.72-5.5-.02-11.41,2.59-15.09,6.74-4.15,4.68-5.97,12.64-4.67,18.93,1.15,5.58,3.96,9.63,8.42,12.92l-.09,.52c-4.58-3.39-7.87-7.64-9.06-13.38-1.33-6.46,.54-14.65,4.8-19.46,3.78-4.27,10.25-6.84,15.91-6.82,11.72,.04,18.38,7.63,25.23,16.16,4.59,5.72,8.41,10.51,17.38,15.76l-1.4-.32h0Z"/>
      <path class="cls-62" d="M341.45,85.66c1.23,.54,2.27,.17,1.69-1.68-.54-1.76-2.05-2.46-3.11-3.8-1.04-1.32-1.45-2.9-1.59-4.58-.3-3.59,1.07-7.21,3.12-10.11,6.91-9.78,20.62-11.42,31.71,.07,3.29,3.41,4.88,5.97,9.67,11.51l1.25,.39c-5.04-5.83-6.71-8.53-10.18-12.12-11.68-12.1-26.12-10.37-33.4-.07-2.88,4.07-4.06,9.36-2.93,14.25,.45,1.96,1.33,4.59,3.11,5.79,.22,.14,.44,.27,.66,.36h0Z"/>
      <path class="cls-51" d="M390.34,84.45c-2.54-1.68-5.38-3.96-6.85-5.47-3.22-3.31-5.07-5.94-7.6-9.01-1.09-1.32-2.39-2.61-3.6-3.81-2.6-2.59-6.07-4.56-9.98-5.45-4.35-.99-9.07,.41-9.23,5.52,.83-3.36,3.9-3.79,6.12-2.94,3.3,1.27,4.18,4.54,7.24,6.92,2.49,1.94,6.17,3.73,8.96,5.09,3.32,1.61,5.21,3.14,8.35,5.11,2.92,1.83,6.67,4.56,10.41,6.49l-3.82-2.45h0Z"/>
      <path class="cls-15" d="M397.07,88.78c-4.26-2.49-11.07-1.93-15.33-.33-4.13,1.56-5.82,4.83-6.59,6.7-.63,1.55-2.02,3.09-3.59,1.17-2.74-3.33,6.22-8.19,8.25-9.01,5.52-2.22,12.21-1.48,17.26,1.47h0Z"/>
      <path class="cls-30" d="M374.05,83.19c.74-.11,1.43-.16,1.83-.25,5.18-1.26,11.02,.17,15.47,2.98-3.85-2.44-16.7-10.88-20.61-5.77-1.67,2.17,1.33,3.33,3.32,3.05h-.01Z"/>
      <path class="cls-29" d="M378,86.85c.49-.2,.95-.35,1.2-.49,3.31-1.74,7.54-1.78,11.04-.63-3.04-1-13.24-4.54-15.03-.39-.76,1.76,1.48,2.04,2.78,1.51h0Z"/>
      <path class="cls-13" d="M405.61,90.1s-.36,.66-.39,1.05c-7.39-1.95-12.28,1.87-12.92,4.87-.72,3.08,.69,6.02,2.81,6.41,2.14,.54,2.72-.23,2.76-1,.13-.71-.55-.69-1.15-.61-1.12,.24-2.44-1.03-2.07-2.77,.46-1.67,1.7-2.61,3.84-2.07,2.05,.48,2.97,2.65,2.62,4.53-.48,2.06-2.8,4.07-6.2,3.24-3.32-.76-5-4.58-4.27-8.04,.76-3.31,5.4-7.87,14.97-5.61h0Z"/>
      <path class="cls-1" d="M397.72,71.94c-2.08-4.47-.9-11.2,1.1-15.29,1.93-3.97,5.35-5.35,7.28-5.94,1.61-.49,3.26-1.72,1.5-3.47-3.06-3.04-8.74,5.43-9.74,7.38-2.72,5.28-2.61,12.02-.15,17.32h0Z"/>
      <path class="cls-5" d="M383.85,49.4c-.22,.83-.38,1.59-.54,2.03-2.14,5.69-1.34,12.5,1.22,17.92-2.23-4.7-9.99-20.42-3.67-24.13,2.69-1.58,3.59,1.97,2.99,4.19h0Z"/>
      <path class="cls-27" d="M386.85,71.11c-4.72-9.01-2.12-30.02,6.12-35.52,2.64-1.76,4.99,.15,3.79,3.38-1.13,3.07-4.07,4.9-5.94,7.46-2.17,2.98-3.95,6.48-4.64,10.12-.69,3.68-.91,7.25-.13,11.1l.79,3.45h.01Z"/>
      <path class="cls-3" d="M420.87,85.9c-4.91,.47-6.99,.03-10.61-1.29-2.23-.81-4.71-2.44-6.38-4.13-1.71-1.74-2.81-3.7-3.67-5.93-1.53-3.95-1.64-8.19-.57-12.25,.82-3.12,3.34-7.16,7.11-9.66l.53,.16c-3.67,2.44-6.13,6.37-6.93,9.41-1.04,3.95-.93,8.1,.56,11.94,.84,2.17,1.91,4.09,3.58,5.78,1.63,1.65,3.52,3.02,5.64,3.95,2.97,1.29,5.23,1.69,10.47,1.62l.28,.39h0Z"/>
      <path class="cls-40" d="M422.62,82.28c-5,2.18-11.26,2.51-15.2-2.75-2.68-3.58-1.6-10.01,3.33-10.57,2.08-.23,3.89,1.34,4.27,3.17-4.72-1.12-7.95,2.81-6.18,6.52,3.41,7.15,12.06,4.01,17.06,2.17l-3.28,1.46h0Z"/>
      <path class="cls-16" d="M376.74,45.56c-.05,.86-.04,1.64-.12,2.1-.94,6,1.23,12.51,4.85,17.29-3.14-4.15-13.94-17.95-8.51-22.88,2.31-2.1,3.91,1.2,3.78,3.49Z"/>
    </g>
  </g>
  <g>
    <path class="cls-23" d="M484.72,46.79c3.9,6.84,23.89,11.64,35.03,4.26,7.68-5.09,12.63-15.79,10.54-26.95-4.16-22.28-35.58-31.78-49.72-6.15l1.93-6.71c13.33-20.19,44.25-11.41,49.81,12.35,2.54,10.85-2.28,23.65-10.63,29-13.78,8.82-28.5,4.17-33.12-2.39,0,0-3.84-3.41-3.84-3.41Z"/>
    <path class="cls-44" d="M536.65,14.82c10.21,4.36,18,18.89,14.98,27.29h-.02c-.28-4.89-3.96-4.27-4.01-5.58,1.12,18.64-11.82,33.09-26.76,30.72-18.98-3-34.2-22.33-50.4-31.4-8.58-4.81-20.49-8.5-34.05-.16-10.69,6.59-7.47,22.86,.47,26.54,10.94,5.06,19.87-5.53,16.07-11.97l-2.11-1.26c3.98,6.76-1.41,13.17-9.11,11.25-8.9-2.22-9.63-13.42-4.64-19.21,7.4-8.58,21.67-6.88,30.67-1.83,17.01,9.52,33.12,26.39,52.91,30.31,14.08,2.78,30.98-8.9,33.43-22.48,2.19-12.08-4.76-26.75-16.47-31.76l-.98-.45h.02Z"/>
    <path class="cls-32" d="M449.77,53.39c-3.13,5.89-10.93,5.73-12.74-1.23-1.64-6.28,4.62-11.91,9.96-13.29,17.18-4.45,35.6,12.52,28.42,30.01,1.34,.8,3.05-.85,4.18-1.61-5.59,12.79-18.76,2.62-12.31-2.15-10.14,3.71-3.95,15.97,4.93,13.65,12.39-3.24,11.99-19.36,7.49-26.63-7.31-11.82-32.38-23.81-42.19-7.7-5.67,9.3,3.45,19.41,12.41,11.49l-.15-2.53h0Z"/>
    <path class="cls-63" d="M482.94,54.29c6.59,4.35,13.5,9.09,19.85,13.08,12.41,7.8,29.68,8.63,42.33,.9,7.91-4.84,15.77-15.81,26.26-13.68,7.54,1.53,9.94,8.07,7.59,15.77l.5-1.92c2.07-6.77-.31-13.6-7.85-15.14-10.49-2.13-18.34,8.84-26.26,13.69-12.65,7.74-29.1,5.57-42.49-1.97-6.54-3.68-18.1-12.83-24.7-17.18l4.77,6.45h0Z"/>
    <path class="cls-54" d="M486.43,27.99c-1.22-7.77,7.83-12.67,15.77-12.58-1.4-.83-2.25-1.69-3.65-2.22,10.29-2.18,18.59,5.88,20.57,15.32,2.53,12.06-8.57,22.09-20.25,20.94-17.67-1.74-26.52-22.9-48.69-19.61-6.25,.93-9.92,2.42-17.5,9.71,8.07-15.23,26.81-12.49,35.86-8.02,11.93,5.9,15.35,11,24.9,14.89,9.52,3.88,19.6-1.5,20.76-11.95,.99-9-6.69-19.74-17.94-17.45-6.13,1.25-11.94,9.02-8.17,15.34-.92-1.54-1.45-3-1.66-4.38h0Z"/>
    <path class="cls-47" d="M482.16,53.11c13.95,22.44-15.99,40.6-29.5,21.88-6.81-9.43,1.09-24.17,13.53-22.78,4.52,.51,9.47,4.73,8.74,9.81-1.25,8.69-13.85,5.84-11.06-.6l-.3-.21c-3.06,7.29,10.58,9.95,11.94,.53,.8-5.53-4.48-9.93-9.4-10.49-13.5-1.53-21.25,13.2-14.46,23.66,13.64,21.01,45.95,2.65,33.11-20.29l-2.61-1.51h0Z"/>
    <path class="cls-20" d="M518.35,68.29s.41-.69,.45-1.09c7.75,2.37,13.1-1.47,13.92-4.62,.88-3.24-.48-6.42-2.71-6.92-2.25-.66-2.89,.12-2.97,.94-.17,.74,.56,.75,1.2,.69,1.19-.2,2.55,1.19,2.08,3.02-.55,1.75-1.91,2.7-4.16,2.03-2.16-.59-3.04-2.92-2.59-4.91,.6-2.15,3.14-4.19,6.72-3.17,3.49,.95,5.11,5.06,4.18,8.71-.95,3.48-6.06,8.11-16.11,5.32h-.01Z"/>
    <path class="cls-46" d="M562.36,55.78c12.41-3.8,17.75,12.8,6.88,17.75-5.49,2.5-12.16-3-10.19-9.17,.72-2.24,3.36-4.33,5.87-3.44,4.28,1.52,1.56,7.62-1.42,5.55l-.14,.13c3.39,2.29,6.12-4.36,1.48-6.01-2.72-.96-5.5,1.27-6.27,3.71-2.14,6.7,4.54,12.12,10.54,9.74,12.04-4.79,6-23.06-6.94-18.87l.2,.6h0Z"/>
    <path class="cls-64" d="M482.46,54c1.8,.91,2.93,2.02,3.87,3.75,1.87,3.45,3.27,7.19,3.33,11.13,.06,4.29-1.12,9.37-3.01,13.2-6.05,12.22-21.67,19.74-34.1,10.8l.64,.57c12.44,8.94,28.06,1.42,34.1-10.8,1.9-3.84,3.08-8.92,3.01-13.2-.06-3.94-1.11-8.05-2.97-11.49-.94-1.73-2.43-2.48-4.23-3.39l-.64-.57h0Z"/>
    <path class="cls-65" d="M500.2,61.6c8.79,5.06,18,10.6,26.45,15.22,16.51,9.02,38.7,8.76,54.31-2.14,9.77-6.82,18.98-21.49,32.59-19.58,9.78,1.38,13.36,9.57,10.95,19.62l.5-2.5c2.12-8.84-1.46-17.41-11.24-18.79-13.6-1.92-22.82,12.76-32.59,19.58-15.61,10.9-36.86,9.39-54.59,.77-8.67-4.21-24.2-15.03-32.99-20.1l6.61,7.9v.02Z"/>
    <path class="cls-49" d="M475.42,44.19c7.23,4.17,14.81,8.72,21.76,12.52,13.59,7.43,31.84,7.21,44.69-1.76,8.04-5.61,15.62-17.69,26.81-16.11,8.05,1.13,10.99,7.87,9.01,16.15l.41-2.06c1.75-7.27-1.19-14.32-9.24-15.46-11.2-1.58-18.78,10.5-26.81,16.11-12.84,8.97-30.33,7.73-44.92,.63-7.13-3.46-19.92-12.37-27.15-16.53l5.44,6.5h0Z"/>
    <path class="cls-58" d="M624.5,47.15c-.71-.98-1.13-2.2-1.22-3.42-.16-1.94,.41-5.84,3.21-4.48,.57-5.04,7.35-5.71,11.23-4.26,3.52,1.31,6.15,4.3,7.5,7.74,2.79,7.16-.4,15.24-8.34,16.75-8.25,1.57-13.37-5.31-19.44-7.2-4.72-1.47-11.75-1.43-16.13,.88-3.84,2.03-5.34,2.4-9.42,8.38,2.68-8.64,13.92-11.92,20.84-11.26,7.92,.76,13.07,6.66,20.06,7.93,6.96,1.27,12.99-3.79,12.29-10.98-.6-6.2-7.3-12.36-14.55-9.22-4.23,1.83-6.5,7.09-3.49,10.92-1.06-.28-1.92-.94-2.54-1.8v.02Z"/>
    <path class="cls-24" d="M641.38,38.28s.12-.4,.26-.55c-3.56-2.14-3.92-5.5-3-6.89,.93-1.45,2.61-2.02,3.57-1.33,1.02,.63,.94,1.14,.66,1.46-.23,.32-.48,.04-.68-.23-.33-.52-1.33-.55-1.87,.25-.48,.81-.37,1.65,.65,2.28,.97,.63,2.16,.16,2.76-.69,.62-.96,.52-2.63-1.09-3.64-1.56-1.01-3.68-.21-4.76,1.39-1.01,1.55-1.02,5.09,3.49,7.96h.01Z"/>
    <path class="cls-48" d="M489.77,62.3c8.1,6.34,16.56,13.22,24.38,19.07,15.29,11.43,37.61,14.34,54.85,5.62,10.79-5.45,22.13-18.87,35.52-15,9.62,2.78,12.05,11.52,8.18,21.27l.86-2.44c3.39-8.57,1.03-17.69-8.59-20.47-13.39-3.87-24.74,9.55-35.53,15-17.24,8.71-38.36,4.16-54.93-7.03-8.1-5.47-22.15-18.56-30.25-24.9l5.51,8.87h0Z"/>
    <path class="cls-6" d="M492.62,66.05c-.22-.22-.44-.43-.66-.65,8.86,8.59,17.23,37.81,34.54,28.01-1.48,.83,4.26,8.51,5.32,9.14,3.82,2.27,9.38,2.06,13.34,1.2,8.78-1.91,14.87-11.26,22.74,.66-.83-15.67-23.2-9.47-32.47-10.78-17.44-2.46-30.64-15.77-42.81-27.59h0Z"/>
  </g>
</svg>